<mxfile host="65bd71144e">
    <diagram id="rChz7qo_GQSzUXdfwAw2" name="Page-1">
        <mxGraphModel dx="1410" dy="1317" grid="0" gridSize="10" guides="1" tooltips="1" connect="1" arrows="1" fold="1" page="1" pageScale="1" pageWidth="1100" pageHeight="850" math="0" shadow="0">
            <root>
                <mxCell id="0"/>
                <mxCell id="1" parent="0"/>
                <mxCell id="2" value="&lt;font style=&quot;font-size: 120px&quot;&gt;Drinking.Bluff.Dice&lt;/font&gt;" style="text;html=1;align=center;verticalAlign=middle;resizable=0;points=[];autosize=1;strokeColor=none;rotation=0;" vertex="1" parent="1">
                    <mxGeometry x="50" y="395" width="1000" height="60" as="geometry"/>
                </mxCell>
                <mxCell id="4" value="&lt;font style=&quot;font-size: 30px&quot;&gt;By Tyler111&lt;/font&gt;" style="text;html=1;align=center;verticalAlign=middle;resizable=0;points=[];autosize=1;strokeColor=none;" vertex="1" parent="1">
                    <mxGeometry x="880" y="590" width="170" height="30" as="geometry"/>
                </mxCell>
                <mxCell id="5" value="" style="shape=image;verticalLabelPosition=bottom;labelBackgroundColor=#ffffff;verticalAlign=top;aspect=fixed;imageAspect=0;image=data:image/jpeg,/9j/4AAQSkZJRgABAQAAAQABAAD/2wCEAAkGBxATEBIQEhMWFRMSGRYZFhUVGBEZEhcSFRYWFhgYFhUYHSggGBolGxUVITEiJykrLi4uFx81ODMsNygtLisBCgoKBQUFDgUFDisZExkrKysrKysrKysrKysrKysrKysrKysrKysrKysrKysrKysrKysrKysrKysrKysrKysrK//AABEIAOEA4QMBIgACEQEDEQH/xAAcAAEAAgMBAQEAAAAAAAAAAAAABgcDBAUBAgj/xAA+EAACAQIEAwYDBQcDBAMAAAABAgADEQQFEiEGMVEHE0FhcYEiMpEUUoKhsSNCYnKSwdEVouFzs/DxCCVD/8QAFAEBAAAAAAAAAAAAAAAAAAAAAP/EABQRAQAAAAAAAAAAAAAAAAAAAAD/2gAMAwEAAhEDEQA/ALxiIgIiICIiAiIgIiICIiAiIgIiICIiAiIgIiICIiAiIgIiICIiAiIgIiICIiAiIgIiICIiAiIgIiICIiAiIgIiICIiAiIgIiICIiAiIgIiICIiAifLsALmalbGEfKPrA3YnPpZoP3hbzG4m5Srq3Ig/r9IGSIiAiIgIiICIiAiIgIiICIiAiIgIiICIiAiIgIiICfLvaGacLA8UYCvVNCjiaVSoLjSrcyOek8mt5XgcXjvj2hl5RHVqtZxqFNSqhUuQGdj8oJBAFiTYzPwnxTSx9NiqNSqLYtTex+E7BlZdmW4t4EHmBcXqbt4y+qmPOIIOhxSIPgFVdFr+TBv6h1nd7FapeobckRtR6BrAD3IB/D5QLNrLYz4m3iU29JpwPcXnX2ek9ao9qdJSzEgmyjyG59BMHDPaDl+Nbu6VX9p9xwyOQOZCsNx6XnmPo0npPTrWNOopVwxAUqwsRfwlKYzs2x+FxN6CvWo6tVOrSK96n3SVvcMOouD+UD9LxOPwpiqz4Sj9oFq4Re8AtbXbc+Xp4TsQEREBERAREQEREBERAREQEREBERAREQE8M9n524z7RMc+YMtKvUpUkYimlNio0KxUM1vnZrFt9gCBbmYFudp9aouV4ju73bSrW56GYBh7j4fxT888FY4ispJ3uDfob7EdLeHSforhTH/AG/Aaa9nJGiodhq2uGsNgfTxEjmD7HMDTxQxHeVCmrUaI0hCb3sTzA8h+UCbVcFSxNBO/pq4ZVJDDxZRf0nmV5PhsMhp4eilJCblUUAE9T1M6RE+CIGtUWc2oLG06zrObmCbaun6QKz7bcorVcJSr07suGLGonMaHCjvNPjp028gx85Cuz3i6vhWUM5bC3HeUybhEOxqU/uleZA2IB2vvLH4i7Q8Lg6/2Z0qVHABbR3dl1C4B1sLmxBt5iYsiyjI8YWxGHpLfbvKV3TSTv8AHQvYX8tjAsDB1tLg+B2PoZ3pGQZ28ur6kt4rt/iBtxEQEREBERAREQEREBERAREQEREBERAShOPuy/GHFmvhU7xWJ2BAOksWHuL236Ay+54YEY7Psiq4TBqla3ev8TAG4XawW/if8ySz2eQPDNTM8UKVGrWIuKSO9uuhS1vykJ7TeO6uCqU8Nh9AquAz1KgLKisSFCoCNTHSx3OwHnNrgviR8ZTbD4nu3Z0az0wyK6Ws6shJ0sAb3BsRflaBT2C4mrVcU1bEYit32r5qdWoiofu00B0hRysQQbb3vLzyDHHE4RKjEFjdWYCwZlNtQHhcWNvC5lN8RdkuZU8WThVWrSdrhtaKVvzLhj77Xlx8LZR9jwVHDMwZkBLsORqMdTWv4XNh5AQKe7WuE6xrHHUVLiwFZVF2XSLBwBzW1r9LdOXB4GzJ1xWGqUgTUDpTYC/xUKjBXVreAvqHTTeXdmNdTVJU+46zVpKgJYKoJ5kBQT6kQOqtWb2WYvS4vybY/wBpxFqTcwuHdxdRt1OwgTGJGcx40wOEC08ViEWqACUGpnt4HQgLAHzExYHtDyysbU8Qlz4Prp/9xQIEric7/VOi/n/xPP8AU/4fz/4gdKJA+I+0/DYOsaFSjWd1CliiroAYXHxOy6tul4ybtVy7EHSr9233am35rcD3MCeRNbC41HtbYnl0PofGbMBERAREQEREBERAREQE8M9njDaBrY7G06NN61VglOmCzs3JVHMmRrI+0HBYqqKSCsmo2R6tMrTdjyAa50k+Aa1/WaPasKj5ZVCc1ZGI6hbkf79EonhriNqZsSbeP/nWBY3bxw5Xdkx1FS6gKHCgkjTqF7ehH0M5/YgmJfEmsUYUKStd2BCmow0hVvzNiSelh1luriyUUtzKgsPMgEj6zRx2aLTX9AP8QOpiscqgkmwErXj7tFTDju1GqowuqXt8PLU58B5cz5Tex2OeqbsdvAeEr/ivg6tiMT39NkKsF1K5YFdIC7WBuNrwORQ7Scw1hiKRUc0CWFuga9x9Zb1OtcA8rgGx5i/gZCcl4Qp0mR6ulihBVFH7MMORN/mIksFWB0FqyXZeymmqhgSgUMAQSrFQ1mA5GxB36yFYSm9RgiAsx8B+p6CcfgLHPT4gzDCtyrK7H/qU6hKn+gsPQCBIuMOz6hjGeqrmjWexZrakchQoLLcEGygbHw5Spcz4Fw2GrFK2bUEdT8QpU8Q9Vf5lp30nyJn6NMqXi/stqOzvg2Qh2ZjTqMVYMzFjZ7ENufGx9YEh4RzrLkoU8NSxgqFfGrqpsxPRXC29B1MlUoDD9l+dB7hEpC/zNWpafcAm49pdPCuW1KGGWk9QVSvityqiw+FfK9z7wM+cZLhsUmjEUlqDwvcMP5XUgj6yq+LMhyrAYhQuDr1WCrUu1dko7k2CnSWYjTv02lxzUzLLaGITu69Nai9GHI9VI3U+YgV/kva1gRoo1KL0AtgCrB0AHmQp/WWpkmeUq1NXRw6Nycfow5g+sqXi7gLJcLT+01RiQpYKtOk4ZmdrkKusbcjzPhMXDvH+V4KmMPTw2Jppfcs1F2v1P7QflAviJEuFuMsJiRajWD+OggrVUddDWJHpcSWKwIuORgexEQEREBERAREQEREDjZ7SFjcXR9iDyle0uCcsTEDEij8anUAWJp6/BtHK99+ktbE0FdSjcj9fUSFZrw/ilJ0DvF6r81vNT/a8DVxua22G5nGqVCxuTczJWwdVPnpuv8ysP1EwwE08XmmHpHTUrU0bozqD9LzncZ1MUMKfsoYuzAMUBLrTsblQN+dhccgTILk/CFar8To9z4uGRbnrfcwLUpVFZQykMp3BUggjyI5zqZPk1XENZRZR8zn5R6dT5TJwHwEaVBEqkimCWtyZixudv3F/P9ZY9CiqKEUBVHIDkIGplWV0qCaUG5+Zj8zHzP8AaQ6jwo6562YDakaLA+dVjYW9ma/oOsnxnOzDH0KOjvqqU+8YImtlXVUPJVvzPlA+mWYiJV3bzm9eiMItJ2TSWqfCzL+11AISRz0gPt5yecJ5v9rwOHxW2qqg1gchUW6uP6gYFI9oeW4wYms+MLuWqP3RYt3ApXOgUh8oGm1xzve/UweljatB9VNihHihKN/UhBn6tzKrQ0mnVCsrc0YBgfUHaRSvw5kpOr7FSJ8lIH0BtA4/ZPxZiMWr0613CA2qH5gQV+Fm/eBDbE77HnLEnDw2YYeigp0aKog5KgVV+gEPnreCD3vA6mYYGlXpmlVQOjWuD1BuCDzBB3BErLiPsleoxbDV1seSVgwI8u8S9/6RJm2dVf4R7f5mCrnFUAsz6QASTsAANySekCBcN9lWY0cQlRq9Kmqm96bVGe45FRpAv7y78JiinP5fHy85Rmbdp1ZnKYXdRt3lQvZv5UUiw8yfabvCvFlXE1Ww2JQLVVdaspbQ6+OzE2NiDz68rQL8pVAyhlNwwBB6g8p9zSyWkVw9JTzCj89/7zdgIiICIiAiIgIiICIiAmtXy+i/zU0b1Vb/AFmzEDjV+GMI3/56f5Sw/K9p9YDhzDUm1hSzDkXN7eg5TrxAREQPDKX/APkVrCYUj5RrHuxS5+i295ZnHTOMtxeglWNJgCpIYatjYjkbEynsIKua8NEG7V8C5VbkklBpdBcnfb4d+kDF2gVnxmRYDGtu9MBKp/jRtBJ9b395Mexat/8AVsDyp1Xt6FEb9SfrPeBeHDiOH/s1VSvfGoQGBBAPwi+1xuD+U7HDXD/+nZacOW1uSWdhy1NYAD0VR+cCBdofFpwvwpZq9W5W+4Vb21keO9wB5HpK2oY+vXfVVrVSx/eDuLfygGw9hNjtMSoMyql72YIafTu9IG34g3veaOSj4hYE+Q3JPQDrAsXgLNK1Ra+HrMXfDMoDn5mR9VtR8SNPPzks0zjcFZG9Ci71RatiG1uPuj9xPUAn3MkYpQNYJIZ2qY16eDSmu3fvpY/wKNRHudP0k+FKc/P+H6OLomjWBte6suzK3K4+sChss+YSzuzLJnr5h9otakiCip++xOpyvkq3HqZsZX2Z4ak+p6lSoB+6QFHuRvLQ4OwCqSVUKlNdKgCwF+g9AfrAlcREBERAREQEREBERAREQEREBERAREQNbMsOKlGpTIuGUi0g3ZNwy+DTG06gGipV/Zg+NIA7kfit+GWFORjahol2HLSzL6gE2+v6wOiKYACgAAbAAAADyHhOLxK/wKvUk/T/ANyuux3jbEVcXXy/F1WqswNSm7m57wWNRB0Xe4HIaTbpJ9xE16gX7qj6nf8AxAiWb5DhsUAtekr6flJuGW/OzDcDynmVcO4XD70aSqfvblvYnlOzon0EgYAk+gkzhJ9BIGAJGibGiRbHcf5bTcp3rPbm1JGdB+MbH2vAkOiS3I8Poor1b4j78vytItklaliVpVKLh6dXcMvK17H0IsQQeREnAFtoHsREBERAREQEREBERAREQEREBERAREQE1cxw3eUyPHe30sR9JtRA/NOUYN8JxHSFrftqZHmlT4D+rCXHxDjqVI1q9VwlNDuzHYAfCPUnwHjGd8MUDmFDGsPipEsvPnzsfK9jvKi7c80qHEUMJcimE70/xVHZ139Av+4wO7U7UcMXIpYetUQfvXRSR1VDcn3sZNMlzKjiqCYiib035XFmBBsVYeBBn56yNrEE+HTn7DxMvXs9yephsAiVRpqVGeqyfc7w3CnzChb+d4Hf0T0LM2iehIFXdtWfPSo0sHTJX7QGaoRse6U2CejG9/JfOVnkTAHUdgNz0sOcvzjLgOlmSIGLpUpX0VFF9mtdWU7EbA8xb3M1uF+yDD4dg9VjWYG41hRTBHjoF9XubQN7sUyd6OXq9RSpqM9RUPNUqEaRbw+EA/iliTHQpBVCjwmSAiIgIiICIiAiIgIiICIiAiIgIiICIiAiIgYMZhhUXSfUHoZEOJ+BaGNVUxFLUUvoqI2l1vzs3TyIMm0QIJw52aYPCMHp07uOT1GLsD/CLWB85KkyoeLH2E6MQNVMvpjwv6kzOlFRyUD2E+4gIiICIiAiIgIiICIiAiIgIiICIiAiIgIiICIiAiIgIiICIiAiIgIiICIiAiIgIiICIiAiIgIiICIiAiIgIiICIiAiIgIiICIiAiIgIiICIiAiIgIiICIiAiIgIiICIiAiIgIiICIiAiIgIiICIiAiIgIiICIiAiIgIiICIiB//9k=;" vertex="1" parent="1">
                    <mxGeometry x="430" y="120" width="225" height="225" as="geometry"/>
                </mxCell>
                <mxCell id="6" value="&lt;font style=&quot;font-size: 20px&quot;&gt;Landing page&lt;br&gt;&lt;/font&gt;" style="text;html=1;align=center;verticalAlign=middle;resizable=0;points=[];autosize=1;strokeColor=none;" vertex="1" parent="1">
                    <mxGeometry x="8" y="9" width="140" height="20" as="geometry"/>
                </mxCell>
                <mxCell id="7" value="&lt;span style=&quot;color: rgba(0 , 0 , 0 , 0) ; font-family: monospace ; font-size: 0px&quot;&gt;%3CmxGraphModel%3E%3Croot%3E%3CmxCell%20id%3D%220%22%2F%3E%3CmxCell%20id%3D%221%22%20parent%3D%220%22%2F%3E%3CmxCell%20id%3D%222%22%20value%3D%22%26lt%3Bfont%20style%3D%26quot%3Bfont-size%3A%2020px%26quot%3B%26gt%3B%5BLanding%20page%5D%26lt%3Bbr%26gt%3B%26lt%3B%2Ffont%26gt%3B%22%20style%3D%22text%3Bhtml%3D1%3Balign%3Dcenter%3BverticalAlign%3Dmiddle%3Bresizable%3D0%3Bpoints%3D%5B%5D%3Bautosize%3D1%3BstrokeColor%3Dnone%3B%22%20vertex%3D%221%22%20parent%3D%221%22%3E%3CmxGeometry%20x%3D%223%22%20y%3D%229%22%20width%3D%22150%22%20height%3D%2220%22%20as%3D%22geometry%22%2F%3E%3C%2FmxCell%3E%3C%2Froot%3E%3C%2FmxGraphModel%3E&lt;/span&gt;" style="text;html=1;align=center;verticalAlign=middle;resizable=0;points=[];autosize=1;strokeColor=none;" vertex="1" parent="1">
                    <mxGeometry x="200" y="1060" width="20" height="20" as="geometry"/>
                </mxCell>
                <mxCell id="8" value="&lt;font style=&quot;font-size: 20px&quot;&gt;Page 1&lt;br&gt;&lt;/font&gt;" style="text;html=1;align=center;verticalAlign=middle;resizable=0;points=[];autosize=1;strokeColor=none;" vertex="1" parent="1">
                    <mxGeometry x="38" y="860" width="80" height="20" as="geometry"/>
                </mxCell>
                <mxCell id="9" value="&lt;font style=&quot;font-size: 30px&quot;&gt;Player 1 Name:&lt;/font&gt;" style="text;html=1;align=center;verticalAlign=middle;resizable=0;points=[];autosize=1;strokeColor=none;" vertex="1" parent="1">
                    <mxGeometry x="148" y="1260.5" width="220" height="30" as="geometry"/>
                </mxCell>
                <mxCell id="10" value="&lt;font style=&quot;font-size: 23px&quot;&gt;input text&amp;nbsp;&lt;/font&gt;" style="rounded=1;whiteSpace=wrap;html=1;perimeterSpacing=27;" vertex="1" parent="1">
                    <mxGeometry x="390" y="1218" width="320" height="115" as="geometry"/>
                </mxCell>
                <mxCell id="11" value="&lt;span style=&quot;color: rgba(0 , 0 , 0 , 0) ; font-family: monospace ; font-size: 0px&quot;&gt;%3CmxGraphModel%3E%3Croot%3E%3CmxCell%20id%3D%220%22%2F%3E%3CmxCell%20id%3D%221%22%20parent%3D%220%22%2F%3E%3CmxCell%20id%3D%222%22%20value%3D%22%26lt%3Bfont%20style%3D%26quot%3Bfont-size%3A%2020px%26quot%3B%26gt%3B%5BLanding%20page%5D%26lt%3Bbr%26gt%3B%26lt%3B%2Ffont%26gt%3B%22%20style%3D%22text%3Bhtml%3D1%3Balign%3Dcenter%3BverticalAlign%3Dmiddle%3Bresizable%3D0%3Bpoints%3D%5B%5D%3Bautosize%3D1%3BstrokeColor%3Dnone%3B%22%20vertex%3D%221%22%20parent%3D%221%22%3E%3CmxGeometry%20x%3D%223%22%20y%3D%229%22%20width%3D%22150%22%20height%3D%2220%22%20as%3D%22geometry%22%2F%3E%3C%2FmxCell%3E%3C%2Froot%3E%3C%2FmxGraphModel%3E&lt;/span&gt;" style="text;html=1;align=center;verticalAlign=middle;resizable=0;points=[];autosize=1;strokeColor=none;" vertex="1" parent="1">
                    <mxGeometry x="212" y="1880" width="20" height="20" as="geometry"/>
                </mxCell>
                <mxCell id="12" value="&lt;font style=&quot;font-size: 30px&quot;&gt;Player 2 Name:&lt;/font&gt;" style="text;html=1;align=center;verticalAlign=middle;resizable=0;points=[];autosize=1;strokeColor=none;" vertex="1" parent="1">
                    <mxGeometry x="160" y="2080.5" width="220" height="30" as="geometry"/>
                </mxCell>
                <mxCell id="13" value="&lt;span style=&quot;font-size: 23px&quot;&gt;input text&amp;nbsp;&lt;/span&gt;" style="rounded=1;whiteSpace=wrap;html=1;perimeterSpacing=27;" vertex="1" parent="1">
                    <mxGeometry x="402" y="2038" width="320" height="115" as="geometry"/>
                </mxCell>
                <mxCell id="14" value="&lt;font style=&quot;font-size: 20px&quot;&gt;Page 2&lt;br&gt;&lt;/font&gt;" style="text;html=1;align=center;verticalAlign=middle;resizable=0;points=[];autosize=1;strokeColor=none;" vertex="1" parent="1">
                    <mxGeometry x="42" y="1730" width="73" height="21" as="geometry"/>
                </mxCell>
                <mxCell id="15" value="&lt;font style=&quot;font-size: 20px&quot;&gt;Page 3&lt;br&gt;&lt;/font&gt;" style="text;html=1;align=center;verticalAlign=middle;resizable=0;points=[];autosize=1;strokeColor=none;" vertex="1" parent="1">
                    <mxGeometry x="50" y="2580" width="73" height="21" as="geometry"/>
                </mxCell>
                <mxCell id="16" value="&lt;font style=&quot;font-size: 30px&quot;&gt;{Player 1 name} Ready&lt;br&gt;&lt;br&gt;&lt;br&gt;LET'S ROLL BABY&lt;br&gt;&lt;/font&gt;" style="rounded=1;whiteSpace=wrap;html=1;" vertex="1" parent="1">
                    <mxGeometry x="244" y="2772" width="520" height="256" as="geometry"/>
                </mxCell>
                <mxCell id="17" value="&lt;span style=&quot;color: rgba(0 , 0 , 0 , 0) ; font-family: monospace ; font-size: 0px&quot;&gt;%3CmxGraphModel%3E%3Croot%3E%3CmxCell%20id%3D%220%22%2F%3E%3CmxCell%20id%3D%221%22%20parent%3D%220%22%2F%3E%3CmxCell%20id%3D%222%22%20value%3D%22%26lt%3Bfont%20style%3D%26quot%3Bfont-size%3A%2020px%26quot%3B%26gt%3BPage%203%26lt%3Bbr%26gt%3B%26lt%3B%2Ffont%26gt%3B%22%20style%3D%22text%3Bhtml%3D1%3Balign%3Dcenter%3BverticalAlign%3Dmiddle%3Bresizable%3D0%3Bpoints%3D%5B%5D%3Bautosize%3D1%3BstrokeColor%3Dnone%3B%22%20vertex%3D%221%22%20parent%3D%221%22%3E%3CmxGeometry%20x%3D%2250%22%20y%3D%222580%22%20width%3D%2273%22%20height%3D%2221%22%20as%3D%22geometry%22%2F%3E%3C%2FmxCell%3E%3C%2Froot%3E%3C%2FmxGraphModel%3E&lt;/span&gt;" style="text;html=1;align=center;verticalAlign=middle;resizable=0;points=[];autosize=1;strokeColor=none;" vertex="1" parent="1">
                    <mxGeometry x="63" y="3493" width="10" height="22" as="geometry"/>
                </mxCell>
                <mxCell id="18" value="&lt;font style=&quot;font-size: 20px&quot;&gt;Page 4&lt;br&gt;&lt;/font&gt;" style="text;html=1;align=center;verticalAlign=middle;resizable=0;points=[];autosize=1;strokeColor=none;" vertex="1" parent="1">
                    <mxGeometry x="45" y="3424" width="73" height="21" as="geometry"/>
                </mxCell>
                <mxCell id="19" value="" style="shape=image;verticalLabelPosition=bottom;labelBackgroundColor=#ffffff;verticalAlign=top;aspect=fixed;imageAspect=0;image=data:image/jpeg,/9j/4AAQSkZJRgABAQEAAQABAAD/2wBDAAUDBAQEAwUEBAQFBQUGBwwIBwcHBw8LCwkMEQ8SEhEPERETFhwXExQaFRERGCEYGh0dHx8fExciJCIeJBweHx7/2wBDAQUFBQcGBw4ICA4eFBEUHh4eHh4eHh4eHh4eHh4eHh4eHh4eHh4eHh4eHh4eHh4eHh4eHh4eHh4eHh4eHh4eHh7/wAARCAHCAKoDASIAAhEBAxEB/8QAHwAAAQUBAQEBAQEAAAAAAAAAAAECAwQFBgcICQoL/8QAtRAAAgEDAwIEAwUFBAQAAAF9AQIDAAQRBRIhMUEGE1FhByJxFDKBkaEII0KxwRVS0fAkM2JyggkKFhcYGRolJicoKSo0NTY3ODk6Q0RFRkdISUpTVFVWV1hZWmNkZWZnaGlqc3R1dnd4eXqDhIWGh4iJipKTlJWWl5iZmqKjpKWmp6ipqrKztLW2t7i5usLDxMXGx8jJytLT1NXW19jZ2uHi4+Tl5ufo6erx8vP09fb3+Pn6/8QAHwEAAwEBAQEBAQEBAQAAAAAAAAECAwQFBgcICQoL/8QAtREAAgECBAQDBAcFBAQAAQJ3AAECAxEEBSExBhJBUQdhcRMiMoEIFEKRobHBCSMzUvAVYnLRChYkNOEl8RcYGRomJygpKjU2Nzg5OkNERUZHSElKU1RVVldYWVpjZGVmZ2hpanN0dXZ3eHl6goOEhYaHiImKkpOUlZaXmJmaoqOkpaanqKmqsrO0tba3uLm6wsPExcbHyMnK0tPU1dbX2Nna4uPk5ebn6Onq8vP09fb3+Pn6/9oADAMBAAIRAxEAPwD7LooooAKKK+Ufir+0p428IePNc8OQ+H9EeCwumhhlcS72XqrH5sZwR2r18nyTGZxVlRwiTklfVpabdTOpVjTV5H1bmkLgdePrX5x+K/jh8UvEksv2jxdqFlBK2TDY7IFUegKrux+NcTczatqbbrrWNbuXY9Zr9n/mK+o/4hzm0VepH7nF/nJHO8bTP1Jn1KwgGZr22j/3plH8zVRvEvh9Dh9c0tT73kY/9mr82PB+jaPFPI/iPR9Q1tXx5aQ6v9k2euT5bls/hXpWmaX8LMgt8I7uY453+LJiP0jFc1bgzE0HacZf+U//AJMn6/TW7X4/5H203ivwwv3vEWjr9b6L/wCKqM+MvCQ+94o0QfXUIv8A4qvjW7vvgrpJCXvwUnbHJK+IZZP5kVAPHP7P8Rw3wQuSPfVGP/s9THhGu1dU5v8A8A/+TKjjIS2a/H/I+zz428Gjr4s0H/wYw/8AxVA8a+Dj08WaCfpqMP8A8VXxqvxG/Z1Xhvgnce/+kg/zkp//AAsH9mt/vfBW8/CRf/jtYT4XxC0jRn/5J/mX9Yj3R9lr4v8ACjfd8S6K30v4v/iqePFPho9PEGk/+BsX/wAVXxc/jj9mdxj/AIU3qq/7l1t/lNVV/F/7NjPlfhR4gQf7Oon+Xm10UeD8RP46VReig/8A29CeJj0aPuKLXdFl/wBVq+nvnptuUP8AWrSXto+NlzC2fSRT/WvhmPx/8B4FxZ+CPF9qB0CX8Zx/30xqle+PfhFNGyR6B43QHoRf2gI/OM1t/qNipP3YVP8AwGP/AMsJ+t+n3/8AAPvkMDyKM/WvzJ8V65oUjxTeFNU8Y2MgJ8xb25hcY7bTEEwfqDUWiePfGGmfPbeOPFcTjoItQYL+RY1uvDvHzXuKXzjFf+5GH1yK/r/gH6eZor4i+En7QXxBuPFWnaTfahJqtvPKsTLdCPPPGdyIGz+NfbFmzvbRvJ94jmvmM74fxmS1I08Ul72qs7m1KvGrdRJaKKK8Q2CiiigAr4d/bL0RbT4h6lfIgH2oQT5x6ptP6rX3FXgv7Q3gPS/F3xC8P22qT38Fve6fdRsbWQLueIb0zkEfxHp1r6fhLOaeT5isRVvy2s7fL07HNi6bqQsj4jtbfLA4B7/pW/ptoPl3BRzXtk3wH8O2rhYte1pQB0JiP/slPj+C+mr/AKrxLqaYHRoIW/oK/V6/H+WVVpzL5f8ABPHdGTPNdMtkAU46d66K0XagC+nFdG3wyaCcxQ+JZ8Kgb95YxnP5MKil8JXtmP8AkNRSY6brLH8nrxcRxHgsRtN/czmqYWozzrx0f3hB9K89v2AJxXp3jXQ7uWRjJfwcD+GAj/2Y15tq+nPbsQZw/wBFxXoYXNcM6KSl+DNaNKUVZmJI5zSRsc9ake3Ofv8A6ULAR3rKOYU+f4vzOzk0Ho2akApIrdmPDgfUVoW2kyzYxcRgf7pr2aGb4Wn8c/wf+Rk4MoYpMV0UHhiSReb5B/2zJ/rVuLwcCQZNSG3/AGYef516cOKcsho6n4S/yJ5GcgRTkHIrtE8GWhYZ1C4PPOIl/wAa0IPAmleWzyXt7wM9UH9KufGWWRW7fyf62DlZF+z9a/a/inoqYzi6Q/rX6SQDbCo9BXyN+zP4B8PJONfVLw3kDZifzyAvPXAFfXUQxGo9hX4xx1n1DOMdGVBNKCtr3+9npYKm4pyfUdRRRXxB3BRRRQAV558X7OR9Y8GajGQPJ1n7OxJwMTRMnPtkCvQ6474vx/8AFHi8Bw1lf2lyD6bZkz+hNNbky2OcvvB2vu+4W8TgDHEoqi/hLxEmf+JezDHZ1/xr2AGkJGeQK6FjZrojH6tA8Nu/CfiFZ3k/su4IKBcBc96wNV8MeIVVidIvT9ISa+jyAfSmmNTWkcxmvsol4SPc+KfF/h7XhuI0TUzx2tJD/SvJfEWjawJWDaVqA55zayf4V+lrQKe5/OoJbJHHOfzr1aHEkqKs6afz/wCASsEk78x+W0unXythrK6U+hhYf0pv2O5H/LvOP+2Tf4V+oDaPbMclATS/2TbY/wBWp/CrXFKvf2X4/wDAK+qeZ+YkFleM3y2ly30hY/0rc0vSdYf/AFek6g/0tZD/AEr9JYNPhj+7Ht+gqysRXGGYD61o+LHJaUfx/wCAJ4PzPz20/QvEEhCx6Hqjn0+xyf8AxNbNv4S8XORs8M6yx9rGT/CvvTaR/E3/AH1SgkDqfzrllxFNvSmvvF9SXc+HbT4e+P5yDF4R1kj/AGrZl/niugtPhP8AEa4tnVfDU8RZSB5ssafzavsFm56Uwn0xWU+Iqz2gvxK+pQ7nj/wU8CeJPC2lNDrMNrE7EHalwHI5744r2sdKz3B3DIrQrx51XWm5y3Z0QgoKyCiiipKCiiigArnPidbC7+H+uREgYspHyRnG0bs/pXR1T1u1W+0a9snXcs9vJER6hlI/rQhPYTS7pL3TbW8jIKTwpKuD1DKCP51YzzXing6/mfwDoFx9sKhbRUkXcxLbBhgAOrYB47Y4zW/a3V0AHa6nBEm3mZjwT8v5+2e3bNfI4viaOGqSg6d7O2//AAD1qeWSnBTUt/I9KJozXnh1G7ijRFu7g4GCXc5NTJq15sZvOfgf3jXKuMqHWm/wL/sipa6kd7kUhYGvPr3Xb+Ky82O8kDDBPNYtx4v1k4CzzrjqQwG6tY8X4eX/AC7l+H+ZpTyOvU2aPWiRTCeeteTXfinXVh/c6l5iMMmQBR5ZHUGsKHxd4p+1TOl/czwb+CwwwHb5cYwc9atcUYeauoP8P8zenw5iJr4l+P8Ake7K2Dy1P3D1ryCx1/VUtvtcuuvMrJu2q2SG/u+2PpV608S3csIMl3dByvGG4b6+lZPi6hFfw5fgZSyGstpJ/eeoF88UbvrXki6tqMivK19c9MAbz+nNT6TeXUxlWaeYsCOshPH51nPjGnFXVJ/eVLIakVdzR6mXHqKiluYIxmSaNB7sK8+LPgje3B9ahuuV3Ek9wPSuWXGzekaP4/8AAM1k+usvwO+i1CzluI44p1kYsBhea2a8/wDB67tTQAYG8EZ716AOlfU5FmE8fh3Vmkteh5+Nw8cPU5IsKKKK9o4wooooAKD0opD04oA8L8CrJa+G5bEEv/Z2qXduBtJYBJ3HT8fwHNb1m0zW7NHMjOpVSz/dGDh8fxYPIGe4/PP0VBba54xs9qM0GvXEoUnA/eRRyjJPQZJyfer8KbLRo5wAERCySkEjAyT/ALXOOfVTX5Rn8eXFVF5n1GEnehEH25UDj0Uen+FSREYKkHB601yRy3949O5zjn3p0PPGT7j14r51s7+b3SK4t42HzyOcfw9qx9QGJTst4tqDlWUnj3NbNzOsQIIJJ5AArHgugZyrSEFztKnkHJPv61cL3udOHcrXOc1rTru7uY5LeKLft3FEJ6c4J9aqaZqcqMkckQkk3gt8xyOw4Jrd12HULKNpYbw28bKFfysgkZ6E/UjpWBpVvaw3ccywrO8zHOOFHPJPv65r0aclKnrqezRnz09dUdDaMl5KGZIsDsBnB9Pc1eezS3ZJQ67d3IZs/hUkImmEc0sSRgL8qouAvtU89sk0ikt0Xc5z0H+f5VwynqefOrr5Dbv7MFjbydqvjDBwR69u9XNPQNL54jCKRtqhosfkXrRnHlt0yOPY1stlnfaAMEdPWsajt7pyVXy+6SMMk1FKOPbv3p5JAPBOO1N+YrwCPY1jE5ma/gxCdUU+mT+ld2OlcZ4Mj/4mBYj+EmuzHSv1jhGNsvT7tnzeaO9f5BRRRX055wUUUUAFFFFAHjt8qW/xU8XwPGu2dLK6OQBuzC0Zz3IPl4qxbpmBmKtHjLjYpbaCBnBBPPJ6f0pfGLLbfGh0xze+H42AP8TRXDj8OJRUcMr7XR2J25BXOVLYBPTn8q/MuJIWxs33t+R9Ll/vUEJLLKQu5mQ8AkZOT6Ec/wCeaktGZmXJ56A46VUumCyELlBkLnBJPXufxqbT25HPpjPSvmZR0PVlH3CXVI4njDmQrzn6+1cdrUlzG8slqJA3TC/Nmup1eCaeM+SrEgjBH8q5S3vJvNuILiCQKp5B+U5wfxFXh01rudWA0Xcz9H1e51MLbvAEC581mXjII469eK07u3Sz1BrqTKhn3MQ2Fye+D0NYsV/IusQQWpgjZRtwVLckjJ579+Km1mPURdI93JHIinELKu1c46EfnXdKneWmiZ6/svfSWiaO1tJY7yAPExCMOOCO34cVZijeOEOBvx2xg4riI9f0/RYBcalfLHaIgDs7YVffnp/WuJ8YftBaFYF4PDtpcavKVI86RjDCp9sjc35Cu7J+Es3zyr7PLqEp+e0V6ydkvmzwswxFHBfxZpL+vme2zCaRlliGJ15+YAZHpVq3laTLEdWwPevjjVfjl8QbzC2+pw6egJwLaBc8/wC02TXOzfELxzPJ5kni/XC2c8Xrrj8jX6pgvo+Z7iIJ169OHl70n+CS/FnzVbibCxdoxb/D9T7wIBI9c0ODs+bCnjNfEOj/ABa+IulSK8HivUJ1U8x3TCdD9Q4Ne6fCH472fiS9h0PxRbQadqUxCQXMRIgnbspB5Rj25IJ444FeDxP4I8RZFh5Yqny14R1fJfmS78rSuvS5WFz3DYiSj8L8z6M8Erm7lPB+TrXW1y/glSJJyf7oFdRUcLRtlsPn+Zw5i712FFFFfQnEFFFFABRRRQB5P8Wl8j4m+FbsEp51jf2zMB2HlSYz/wABNU47iBIJfLlB6MFICsobPOPTr2zwetXfj6gi1PwbqA3Zh1cwnHpLbyr/AEFYdtODE+xIg7hOkowOT8oHYgYPoT0r8/4mp3xF/L9T6fKI81H5j5CqkgZG0hflXBIx9en68VasW2hdzHBHpnNZhZn5UNtJyMnAHt/nP9KvWr7TgDHvjkZr5acND2asbRsReI5J4IC8W4jGCRn+frXEWN78t7LKhUgqAck7hjrz+Vdp4guJfszhHKKVIZguQo9a8puW1CO5le2clXO07hwTnPSt8HTU4tM6sDHS7Omu7y2eKFxlW5yW61598UvGVt4eZVmm+1XzgNHbmQklfUn+Ee/U1jfEzxjL4djEdrdh9Qk4EOA0YHdmB6c9B3rw68uri9u5Lu7meaeVtzu5yWNfrPBXAaxyjjcd/D+zHrL17R/F9Lbnk5/xIsHfD4bWfV9v+CaviXxLq3iG483UblmRTmOFeI4/oP6nmstSajFPWv6ZyqhTw9KNKjFRitklZL5H5nXrTrTc6ju31ZIKkHSo1qTtX1tLY5mFKCQcimml7V12uhH6AfskeLZvGHw3S6vpjLqNi32O7YnlyoBVz7spGfcGvZq+Uv2AJylv4jtc/LIIZPxUsP5NX1bX8qcTZVQyrNq+Gw6tDmbS7c3vWXkm9PI96lWlWgpy3/y0CiiivCNAooooAKKKKAPKv2kjt8I2d0uA9jq1jcZ7gGcRn9HNcvavwY44lVVJZup6YGRz/Ot39omT7T4X8U2ADbrfQo71cDPKXDN/7JXN20u9eDywBUlc4PqPw718fxPScZRb/rRH0+RO9OSJNwVmByTnrjBOPpVy1JxtXkEdCazHfL8E+/X8uau2j7VG3HQdR/OvjpRPfqr3Sv4k84wNPCZV2/eZDjFeT+NNRfRNIu9UuiAsa4RQMb2PQfnXqniGXFoWXdjOSP6ivmj9oPXxc6la6DbSs0NqvnTdsyMOBj2X/wBCNfYcCZA86zWGGmv3a96X+FdPm7L5nDj8x+o4KU4/FsvV/wCW55fq9/c6lqEt7dyGSaVssT/Ie1V07Uw09K/qFQjGfLBWS0SXRI/MpScm23qSiprWCa4uI7e3hkmlkYKkcalmYnoAByTSWdvPd3MVrbRPNPM4SONBlnYnAAHqTX1l8MvB/hv4Safp13rYtr3xlqys0EbkYgjUbpGGeiKoOT1dsAe3RmfEFHJcN7Wa5pWbUV5K7b7JdWTTpOpKxwHw/wD2bPFmt2Y1LxFeW3hyxC728/DShfVhkKn4nPtXZxfAT4OAi0k+Llsb0nbgahaj5vTH/wBerXjXSdT8bM+pax4j8Q/LI6x6YkUPk2yBFdsIAUDqjryxLHJIycV5WfCmo6Vq/iaGW5tL5NIhga+g8nEVzAU3MqDqpG0BSMHvxXyNDjKtj4urVxzpbNRjCy1lGKs2nzK8oq97XfZNrp+qTvaFO/z8m/yTNr4sfs5eJPCOkya9oN9H4j0hE8x2hTE0af3toJDqO5U/hXhxr63+E2v3ngu7j02G8k1PRHh+2RSnGy9siQGGzoJ4gyncMbwSpzwR4Z+0b4UtfCHxY1TT9OCDTbrZfWQT7oilG7A9gdwHtivsuCOMZ5niqmX4iopyirqVrNq9nddGvzTT1TMsXg5UYRqNWv8A1/Xqj3L9gmP5dak9FUV9YV8t/sExf8SfWpenzIP519SV+Y8dy5s9r/L8kdGC/hL5hRRRXyJ1hRRRQAUUUUAeTfE2A3/jPXNJxuF74MnTBPfzXUf+h1514YuTceH9NmY532cDZB9YlOB+del+K5kj+PWmQyEgXHhe5AG3O7bdQk89uD+Oa8z0uzbT7KGw8vDWq+VnHQLwMfgBXz3FkVen5xT/ADX6H0vDespo0XkDMfQ9CRjFWLdwEGc8DjNZjly67SMZ5q1DvLANwAK+FlE+nqRsiTVJIP7MnmmbaEUsT6Adf0r4o8T6jJq2vXuoysWa4mZ8+xPH6Yr6s+Kd7/Z3gHWr1W2slsyR/wC8/wAg/nXyHL3r968HMuVPB4vGveUlBfJXf5r7j4Ximu3OnSWyV/0/Qg6mpI6j71JHX6jD4z5Zntn7IvhqHWviNJqNyqtHpkIdAR0kclQfwAb86k8U61qXij41alfxEzBrOdI4HIC/ZhC22LJ+6CpXLdizGtv9iS4iHiXXbJmAkmghdR6gMwP/AKEKxtEmbw38WIp59kb3mnvbRecgZGmA8po3UkAqzRlCMjIfqM18lmuKcczxMZq/7ppL5Ju3y5n8jphTvST81/X5Hq3wj8GJ9sHiXxlPcQ3eZLGMSsqR3UphKmSW3I3BxskBdjhvK3AYINUfDd/Jd+Ldbs7/AEx4HKJJIXHySEoiugGO3HHowqbStSHiXVZrGxGrTLHcKlwJ/vwk7PMhMjY2qEihi3sPMZAyhdzuRLrGmX2peIptZtDODDeTwTsgODKk4jjIPfEEjq3b5QOq1+V8W4mhiq88LKajenyrdKD5ozikuz5bbaaJdl7OVVZ4Zxq2ulK789Gn+ZZ06xi0bR9Nhlga8lsY2hR4wAQhzuPJAA2gZ9wMV5f+1eiyzeBtQ4MkugCBj6iKVlB/KvT4bjWmhuYb22hgWKWRXug+P3akZ+TqH27vb7p7kDyf9qu6UeI/CujAbW07w9b+an9ySVmkI/Iiva8D6OKfEdWdaSlL3nJp3WvM+miu23bR66rY7eJ6tKeFpeyVo9Lq21l8+mv3Htn7CFuU8H6tKf4p1H6V9KV4F+xHB5fw3vJcY8y6/kK99r3eManPneIf979EfO4L+Cv66hRRRXzJ1BRRRQAUUUUAeR/Eljb/AB78DuP+XnR9WgJ/3fIf+lcp4lWNNduFwc54OeM9xXRfHBvI+MfwpuQcF7nUrZj7PbA4/MCud8ZAx6/McFs4x+Ir5/ipa0H3h/7fJH0fDb/eyX9dCkmGce471aAVVB4AwapI+Dg/Q4qV5isJyRkjtXw84u59RX0PL/2kNRNt4GhsQTm8vVHXqEBY/rivm6SvY/2lNQaXUtKsA3yxwvMV92IA/Ra8ck/rX9U+H+C+p8MUO83KT+bsvwSPzDO63tcbLy0IT1qSOoz1qSOvoKfxHmPY7f4NeLv+EK8f2GtSFvsmTDdgf88mxk/gQG/Cvdfjt4Osr9l1WBw2l6zIbmxvIlMgt7t1zJEwXJMUoAcEA4bPqM/LK16b8MviZ/ZFvZaH4m/tK60a1lL20lldGK5syww2w9GT/ZPTqD2rhz7IK2McMbg21Vh20emzV7q62aad4tqz2euHxCp3jJXT/r+vM9oksdX8N/DHS7a5SPUdQl02ee4s7mIBkuEiMv2jzMb98SrGnJzwoGDzXJ/Cnxf8Rb/w99g0jWopIrd2uLpdR08bFi3AZScDJLMxJHBByQTkiu/GmfCX4hWiz6b8T9X0+5ey+xSrLqCFmhJBKNHKoIyQM4xnHOafL4U+FnhHRILTxV8XdX1TSrTDQ6Wl+kUR2nIASHLnn0PWvzXDZVUjhq9LEU4yxFWfM06TfKve0UXGz0aitYvS7lsl2yqJzi4tqKXffb+upU8NXv8AwkV3qzatDPYWGmSeZ4lvJWBhWOMbvLRwcNLIMIQOgDNxlRXzX8SfE8/jPx7q3iWdShvrkvGn9yMYVF/BQBXc/Gr4u2/ibTIfB3gzTE0HwfaN8ltEgRrkg/ecDoM84OSTyTnAHksXMq/Wv2Pw74MhkFKeJlT5J1OnVKy31dr2Vo3fKkldu7fFj8bPEWi3dR2/r579T77/AGObU2/wihcj/Wzs1e015h+y/b+R8HNI4xvDN+ten1+OcRVPaZriJf3n+Z1YVWoxCiiivGOgKKKKACiiigDxb9pI/Z/Ffwu1DA/d+JxDk9hJEw/pWP45G3W1bkEovOfqK0f2xT9m8HeFNUBANh4tsJiT2Hzg1W+IMeNRicYx8wB+hH+NeLxRC9PDy/utf+TN/qe9w9K2Ia/rYwEiJ5BHPrzVl4v3YyD061FakMwUjIz09KvTkCAgjPGK+EnfmPpcVUaPlX49XHnfEG6iByLeKOLHodu4/wDoVedv0rqviddi98ea3cA5DXkig+ynaP5Vyr9K/szLsL9UyjC0P5acPv5Vf8T8oxE/aV5z7tkR61JHUZp8dc9P4yGa2naLrF/EJrHSr66jyRvigZlyOoyBirF54c1+wtGu73Rr+2t1I3SywMqjPTJNdR8NfFWqLqvh/wAO2ziCzF1iYL1l3MSc/wAq6Pxbrd5J8SpvDN3qc8ekX3lwSReUJQrPjBAJGDnHP6GvEfE2c4TN3g3Rp8ig6t7zcvZxlyuyS+NrVLVdLnqU8BhamGVXmd2+Xpbmav8Acee6t4V13StFtdY1Gwa3tbogQmRl3HIyDt6gEetdD4W+F3iDW9CbWjJa2FoYzJEZy26VR/EAoOBx1PWu78ReG7CTUtc1bXr3UNS0zRoIyLR7gjzZimSTjGBgjgY6mr0mgW3iLUfD3iASXNtby6U91LprXTLHhVUIgPVUO7B7bR2zXmYrxRxU8DTdKooN3cqip3ivcVSNKMZTvzODV5tcqdla709ClkUFVlzRv2jez35XJtLa/Tf9fn3b8+1fmOccc5q5JY3dpc26XdrNA0qrLGJEKlkPRhnscda900U6Vc+L9Dng0TTpZ4tOu5GvbWzEdvJ5f3TEvfY2F3kc5OMdvHtY13UfFHiWG/1N0kuDsiBVdo2qeOO3Wv0nhzi/FZ7i5Ulh/ZwhBSk3K8ruU4xSSW3uNtys1dLlTueJjsvhhaXNz3bemmlkk3+fTTzP0P8AgNbfZfhN4fixgm1DH8TXc1z3w2t/svgLRIMY2WUfH4V0NfgOY1PaYurPvJ/mdNBWpxXkFFFFcZqFFFFABRRRQB4h+23ET8Br+7C5Nnf2k4I/hxKFz/49Wf4tn+12VneLyJY0f2+ZA1dV+1tbfa/2ePF8fOVtElH/AAGVG/pXnHhu8/tT4ZeHr3IJbTrc59SECn9a83iCPNgqUu0pL8Is9fJJcuJ+79S3YjHJxnNXLoCK1MjMeASfw5/pVawXa65B6VF46vDYeEtWucgCGxmbJ9dh/rXxFDDyr4mFJfaaX3ux9Fj5csGz4u1eY3OoXNwTkyyu+fqxP9az36VYl6D6VXkr+2MxioLlXQ/K4u5EetPjph60+OvnofGaM6HwPqmn6Jr8Gq31tcXBtjvhSJgoL+rZ7fSt7UvFui33ja38TvpV4XiZZDbmddjOn3TnGcZAyK4UU9a74cPYHF4p4uqnzyg6balJe491ZNLfW+9+prDG1adNUo2snfZbnub+IhbaHL45vdPSex18/ZrnS2LSxvsO0PnGFbhgQeCPeq3xN1bUNGn8O+NNGu7vT7q8tSjWNwVYQxkAhQhGAuO2OynivNPDni7xH4fheHSdVnt4XOWiyGTPrtOQD71U1zWtU1y8+16rey3c2MBpD0+leDlXhrKhmka9VQdGPPFq8pc9Jx5YU5QkuX3Eo3nzSlLlWy29StnXPQcYt8zs+itK93JNa6u+lkldmveeOvFV1fz339rzwyzIsbeThAEXoox0HOcCqXhoSX3iiz81jJJNcKWJ5LEnk1jiut+Edr9s+IWjwYzuuoxj8RX6n9QweW4WpLDUowtH7KS0S0WnbofP1q1Sr8cm/U/S3w/F5Gh2MOMbLdF/8dFXqZAgSFEH8KgfpT6/k+cuaTfc92KskgoooqRhXJfFb4h+Gvhr4XfX/Et00cO7y4IIlDTXEmM7EXIycAkkkADkkV1p4Ga+TPihc6V4z/aE1S+8UxNf+GfBf2fTbKwbiO61Gcbzv/2VCsW9o1FOMXJ2SE2krs0vDv7ZnhC+1lLXVfC2raZZyNgXSTJOVH95kABx/u7j9a+kPDeuaR4k0S11rQtQt9Q066TfBcQPuRx/Qg8EHkEYNfJPj7WbO91SHQPHfhnw/eeG79W8i50yyEE9kAM7o3BJLoCCVJIYA4IyBR+zzrWqfCH43y/C/Wr77RoeuODYzg/u3mdd0E6enmqNjAfxhTXXicDVw9OFSVnGaumuv+TXVMzhVjNtLdH0h8e7M3/wW8ZWwOC2i3TD/gMZb+lfPnwRvBffAnQycuYongI9Nk3H6GvqLxtbfbfButWfH7/T7iLkf3o2H9a+PP2Wrr7R8JLm0JAa2vp4/rlFYD868jN482X+kvzS/wAj08sly4lP+tz1XTFVnV2HTge1c38dJxa/DHXZDgb7fy/++nVf610lgjFMg8V59+0he+X8ObqAuQZ54Yx7/PuP/oNeBwth/rGe4SHepD/0pHvZrO2Hm/Jny1N0qB6sS8mq8g61/XeZs/N4ENPjpp605OtfO0/jNWTCnLTBTl619XgVojFkg6Uo603tThX01HYhjh0r0z9mmz+2/F3Q4yuQLhW/KvM69v8A2NLP7T8X7JyuRCjv+QrzeI63scqxE+0X+QkryS8z75ooor+UT6EKKKKAA9K+LNUsv7Q1zxFBdyNELr4n3iTuF5QLBhP0P619pkZBFfIPxN06fTfGXxK0u3DG5i1ay8SWajjessYR8f8AbRQv4125fUdPERknbpftfS/yM6seaDRa8X6LocGnaNpNo73v2fT7mcu5fbJLvRpANxJXgcDtk/SuK/aItbqH4b+GPFduTDqvhrUTYCdRz5YJltz/AMBeNh+NeiSWt1EIljllvrzTIzcahujCyOJPkOVyWJyhGTj7g6AiuZ+OU8V38CfFD+eJIheae8Xy42sXf5T7gGvnnmuJrZgqCbdJuTu773flpdWa7rY9OGHo/UXN6TjZfLT/AIY+tfDGqQ+I/COmazEAIdTsYrlR1wsqBsf+PV8SfsxMbU+M/D8n/LtqAYexBdD/AOg19W/s1yPL8A/BDSMWI0a3GT6BcD9AK+VfhlnSP2iviToJLIJLq5ZRjoUudw/Rq78dHmy+r5OL/MwwcrV4ntlgT9nQ/wCyK8h/ahuceErGHkGS/X8QqOa9c0of6MAeMZH5GvEv2p32WuiQFhh5pnxn0VR/WuDw8o+14mwse0m/ui3+h7ecT/2Ob/rc8FfpVeTvVh6ryd6/qPMz4GJEetOSmGnx14FL4zRkopy00U5a+swXQyZJ2pVpO1KOtfSUdjNjq+kv2EbLzfHt7d44htG/M8V8219b/sDWQzrt8V6RogOPU/8A1q+Z46reyyKu+6S+9oqir1YrzPrGiiiv5lPeCiiigAr57/az04aFqfhz4kx5EFrMNL1bEayBreR98bFW4YLIMYP98V9CVxfx08Pr4p+EHinRNm+S40yYwgDJ81F3p/48opxdndCaurHzXqNnrI8eS+KlmvI49Qtlax1HR7Oa5h1Ql2KplM+WNpRWifJ+U85AJwf2p9SuNM+H2jeBmjYa/rN1HeXVkjh5LdFXZDE2Orl2Jx659K8l8M+PfH3gTRY49A8WXempeZc2SsGATpvwwIGTkcema9r/AGNfhvdePvFdx8W/GlzPqKWF3t08XDbjcXSgEytn+GPICgcbv93B1xLpVpU58lnCKiuyiui0v97dvs2WgqUpQjKKeknd+f8AXy8z61+HWhf8Iz8PtA8O4XdpumwWrbehZIwrH8wa+N/EIbRv24tbtz8qX0rHGcZ8y3Vx+or7o7V8NftR40T9r7RdUKgLcxWUp9+WjP8AKs5R58NWh/d/VL9TWjLlqwfmez6Wg8lwFwodgBnpzXgX7V741TQoMcCCd/zZR/SvftNmjSOUD+8a+c/2ppzN4x02PtHYk/nI3+FYeFNPn4povspv/wAla/U9TOan+xyXp+Z443Sq8nerTCq0vev6UzN6nxsHqQmnpTD1p8dfPUnaZrIlWnLTRTlr63BPYxZJ2pVpO1KK+lo7GbHV9ufsKWXleAtTvCP9bcqoP0FfEg5IFfoB+xxY/Zfg1bS7cGe4d/5CvhPEytyZLy/zSS/X9DbCK9ZfM9nooor+ej2gooooAK8r/al8ZyeDvhLetZT+TqWrSLplkwOGRpch3HusYcj3xXqlfFv/AAUc1u4j8Q+DtHBIgit7i7IB/jZ1QH8Ap/OhAfMPj2eM+KJYbfiK2hS3jA7BV/xr7g/4J++K4tZ+D0/hspHHcaBePGQoALxTEyIx99xkH/ARXwJfTNPfyzOcszksfU19O/8ABObUXh+KPiLS9+I7rRhMV9WjmQD9JG/OqZKPu418Tf8ABQm3+xfEjwjrSggtYsue2Y5tw/8AQq+2a+R/+Cjthu0TwjqYA/d3Vxbk/wC8isP/AEE1th1dyj3i/wAFf9Ak7WZ0+jXiXURljfcsiJIDjGQyg187ftIybviBFGWz5dhED+LOa9O+E+rzX/hTTZo1aeRrGPITlvlXB469u1eNfHK9N78Q7t9joEhhRQ4IONmeh+tdnhNhXHiST/lhL80juzipzYRebRw71Vlqdqglr95zNny8EQmnx9aYafH1r52m/fNiUU9aaKctfWZfLYxY+lXrSDpTl619RR2M2PjGZFHqa/SL9m+0+x/Brw/HjG+Av+Zr84bNd93Evq4r9PPhVa/YvhxoFtjGyxj/AFGf61+Y+K1W2DoU+8m/uX/BOrAr97fyOmooor8OPWCiiigAr4L/AOChNxdXHxe0yxvp2is7fR0ltP3WRl5HD9OeqL6196V8vf8ABRTQ4rr4ZaJr4gQz2GqiEyYG4RyxtkZ643IvFNAfB7ndITkHJ617F+yD4rl8H/GBdSVZJoH0y6jngiQFpwE3IgJ+7mRU+b2rxs1a0+8ubJnktbue3kddjGKQoSvoSO1VG19diXe2h9k6r+2zBDbPDb/Dy4j1BGKvHPqI8tCDjqEyfyFeE/HX4+eKvizp9rperaZpOn6faz+fFHaxuZN+COXYnPBPAAryiWUvIXclmJyzMck/UmmhichVz3OOaadn7oWNHw5r+qaDrVpq1hcyJcWrqyfMcEA/dPseeK6zxprkPiPxHda3bwiCO72OEAwFOxQf1BritN0vU9VmMWm6dd3kg5K28LSED3wOK3Pss9j/AKHcpsng/dyLnO1h1H51+g+GlGLzOrV6qFvvkv8AI5sbJ+yUelxGqvJ1qwary1+jZm9Tz4ERp8famGnR9a+dg7SNScUq0gpVr6XLZ3MmSU5abTlr7DD/AAmTNDw/F52t2cfXdMo/Wv1K8OQ/Z9A0+D/nnaxr+SivzG+HVv8AavG+kQYzvu4x/wCPCv1Et12QRoP4VA/SvyDxYq/vMNDyk/yO3AL3pP0JKKKK/ID0wooooAK8f/bJ0n+1v2dvE4C5ktI4rxPby5VY/wDju6vYKyvGGhWXifwrqnh3UTILTU7SS1mMZAYK6lSRnjIzkUAfkER82PevtP8AZh/Zv+H3in4U6L4u8X2F9fX2o+ZKYftrxxLGJWVOEweVUE5PevN/Fv7MjaH49k0KPxcLizW1tbzzTZbZdk96trsxvxuG7dnocYwK+7vA3h2y8JeD9J8M6cZGtNMtI7WJpCC7BBjc2OMnqfrTYjhfDf7Pfwf0DU7i/svBGnTSTMCEvd11HFj+4spYLTP2hPDmkQ/ArxRp+n6bY2MTWfAgt0jVcEEcKBXq1cL8e03/AAi8Sr/04vXblaTxtFP+aP5ozr6Upeh+fv7Oviu18G/EKWTVJVhtbi1kgkdjwGBDLz7kY/Gub1a4+26rd3nP7+d5ef8AaYn+tU3hi8/zDGpcdGqQV+3cL8IPIK+IrSkpc9krfyq+/nr+B5tfEe1jFdhrDg1Wlq0/SqstduYmUCE06OmmnR+lfOr4jexMOlOWminJX0GVvUxkSCnLTactfa4b4TJnb/A23Fz8VfD0RHW9j/nX6Yivzh/ZohE/xn8PKQT/AKUp/Kv0eFfinipO+YUY9o/qd+X/AGmLRRRX5ceiFFFFABRRRQB4L8QsSfGOeM9ToekD89aSvehXmPiT4eatqnxCPiGK9tI7VrPT7UxndvH2e++0s3TB3ABQPU56CvTqbAK4z42IH+FniRScA2En8q7OuO+NP/JLfEnOP9Ak/lXZlv8AvlL/ABR/NGVf+HL0Z+ZMvEjfWkXvRL/rW+tItf1RXXunhrYR+lVpasv0qrLXyOYvU1gRHrTk6009adH1r56+pv0Jh0pV60DpSjrXvZVuYyJBTlpq04V9thPhMmetfsmxCX43aGD0WRm/JTX6HjpX59fsepu+Nuleyuf/AB01+gor8N8UHfNoL+4vzZ6OA+GXqFFFFfm53hRRRQAUUUUAFFFFABXF/HBtvwn8Sn/qHyfyrtK4T4/P5fwg8StnH+hMPzxXdlavjaK/vR/NGOI/hS9Gfmi/+sP1oFI33z9aUV/VOIWh4o2TpVWXrVmTpVZ+9fHZlua0yM06PrTTT4+tfPL4jZkw6Uo60i9KcOtfQZZoYyJBSjrSClHWvs8I9DJntX7Goz8a9OPpHJ/6Ca+/x0r8/v2OGx8a9MHqsg/8dNfoCOlfhnid/wAjeP8AgX5s9HAfA/UKKKK/OjvCiiigAooooAKKKKACvN/2lZvJ+C3iNs4zbhfzIr0ivI/2t7n7P8ENY55kaNPzavVyKHPmeHj/AH4/mjDEu1GXofnifvUopD1pRX9R4jY8Yjc8VXfvVl+lVn718bmRrTIz96nR9aY3Wnx9a+ej8RsydaeKYtPFfQ5eYSHilpFpe9fX4TYyZ7D+yDJ5fxt0jkfMXX/x01+g4r85/wBlucQfGrQGJxm42/mK/RgdK/E/FCNs0pvvBfmz0sB8MhaKKK/NjvCiiigAooooAKKKKACvBv23rz7P8IBBux598i4z1wCa95r5i/b7vxH4U0HTweZbmSQ/gAP619LwfR9tneGj/ev9yuc2MdqLPjLvSikFOXvX9JYjY8gjk6VWerMnSqsnWvjcyeprTIz1qSPrUZ61JH1r5+HxmzJ06U6kSnAV9DgEYSHLSmkWlNfV4RmR3HwIuvsfxX8Pz5xi9j/nX6YCvyx8CXRs/F+mXIOPLuY2/JhX6lWcgmtIpgch0Vh+IzX5J4p0rYnD1O6a+5/8E9DAPWS9CWiiivyk9EKKKKACiiigAooooAD0r4z/AG+tS83xZommBv8AUWhcj3Zv/rV9mHpX5+fti6r/AGl8atSjVtyWiJAPbC8/rmvvvDfDe1zpT/ki3+n6nDj5Wgl5njFKO9FHrX7xidjzBknSq0lWJDxVaQ5r4vMnqb0yM9ali7VF3qSOvAg/fNZFlOlOpi0/NfR4FnOxVpxpopxr6jCszZPpkhi1CGQHG1wf1r9RPh7ejUfA2iXynImsYWz/AMBFflpGSsit71+j37Mup/2n8GNCkJy0MZhP/ATx+hr898UsPzYSjW7Sa+9f8A7ME7VGvI9Kooor8TPVCiiigAooooAKKKKAGXEiwwPK5wqKWP0HNfl98UdWOt+P9a1MnPn3kjA+244r9Gvi3qw0P4a+INTL7fJsZNp9yMD9TX5h3DmSd5CclmJNfsXhVhNMRiX5RX5v9Dy8dK80uyGUUUGv1LFbHERy1WerMlVnr4vMd2bwIh1qWPpUY61LH0FfPJ2masnXpS0xacK+gwM7tGEkSLTjTFp5r6vDPQzY3pg19x/sMax9s+HV/pjPlrS6DAZ7MP8A61fDh6V9QfsEawsPinVtHd8fabTzEGerIw/oa+e49w31jJar6xtL7nr+Brh5ctWLPsqiiiv52PbCiiigAooooAKDxQTivnb9pX4+/wDCJ3E3hDwbJHLroGLy8IDpZZH3VHRpcevC98ngejlWVYnNcSsNho3k/uS7vsv6WpnUqRpx5pGn+2vr6ab8HpdPjlAm1G7jgKg87R85z+Qr4MPWu18T6nrGp+FWF/e3F4xv2vZnmcu7u6BCzE8n7oriq/onhHJP7HwH1dy5nzNt/d+iPFqVfazcw70ppO9LXtYrYhEUlVn6mrMvFVn718TmTszemR96kSoqkTpXznN7xs9iZTTxUYp4r3MA3dGLJEp9MSn19jhdjFiGvUv2Wtc/sP4xaJMzlY5ZvIfns42/zIry48mtbwbLcW/iSzuLY4khkEob+7tOc/pWmZYaOJwtSjLaUWvvQr217H6h6HrOl63Yi+0i/t722LFPMhcMAwOCp9CD1B5q/X5z+FfH3iTwD4obW/D9+UeSTdc28hLQXQzkiRe/fDDkdjX3L8IPiHo3xJ8Iw67pWYZVPlXlo7AvbSgZKH1HcN3B+oH8/cR8KYjJrVU+ek+vZ9n+j6+R6+HxSrLszs6KKK+UOoKKKKAON+Nfix/BHwv17xLCFNzaW2Lbd0852CR59QGYH8K/Nn7VPc3kt3czPNPNIZJJXOWdicsxPckkmvuz9ti+tbT4CalFcMQ91d2sUIHdxKH/AJKa+AFuR2U/nX7P4aVsFhcFUnVklUnK3/bqSt+LZ5eOUpysuh0YvyISmcgjBB71h3QjRyU4X09Kj+0sRjFNlJZTX6VWrctKU8O9TghBp6grBvukGnVmyIQ5ZSQfUUq3E6cE7vqK+D/17pwk6WNpOLXWOq/Rr8Ts+rN6xZclqq9H2vd95PyNNMiH1FceMz7LcSr06q+aa/NDhSnHdDQOakWo9655NO8xAOtfN/2jR9p8St6m3I7Ey08VX+0RjufypDdoOisa93CZ5l9DWdVfn+Rk6U29EXUqQdKzWvZMfIgH61E8k0v33Yj07V21fEDL8PG1CEqj+5fe9fwEsJNvXQ0zPHu2qwZu+O1aGm3n2ZTs4ZvvH1rDto9i+5q0jEV2ZZnmNzK1SulFfyr9e7/qxFWlGKsjXub0yrliea9e/Yz8W3WhfGez0kSt9h12NrSePPG9VZ43x6ggj6Oa8OLZHNd9+zpILf4zeHL6QgRWt0JnJ9ACB+pr286pxxWWVqUle8X96V1+NjKl+7kpH6WDkZopEIKgj0pa/mk94KKKKAOG+Mfwx0H4paDbaPr91qVvBbXH2iJrKVUbftK87lYEYJrw3XP2NNFdGOh+NtStm/hW9tI5h9CUKGvquiu3DZjisNb2U7W/rqRKnGW6Pz88dfsxfE7w1FJdWNpa+IbRASW06QmUD/rk4DE+y7q8ea1uI7h7WeGSKeNirxupVlYdQQeQfav1kIzXi37TXw28J614Zu/Gt4kFhqujQm5a8AC/aI06wyf3s9FPUMR2JFfoXDfHlSFVYfGxvGWl1vfpdf5fczjr4VcrlA/PaVcGoitSSSh2JxjJ6HtTCwrpzd4SvWk6bujOHMlqRmMUwxmp6K+bq5bRl8JspsrFDSbDVk9aTAzXE8rT2ZXOVvLNOEdTnFHFJZXFbsPaMiWOpY4x1xS8U4MBXqYHBYaErzZE5SaHqKkUUxDnov41JlRX6jlGHpOmpp6HHNu4oFen/s1+Gb7xV8U9L02zR/JjkFzeyjpHAhBYk+5wo92rlfhz4G8T/EDXk0fw1pz3MvBmlPyw26/3pH6KP1PYE1+gXwJ+FOjfC3wx9htGF3ql1tfUL5lw0zDoqj+FFycD3JPJri4r4mwuV4OeHpO9Wasl2v1fby7vyLoYd1Hd7HoijApaKK/AT1wooooAKKKKACvI/wBrq21u/wDghqum6Dpd7qNxdTQJJHaRGR1iWQOzbRzj5AOM9a9coIBrqwWJeExNOuldwadn5O5Mo8yaPyVuYZYZnguYGSVDhkkTDKfQg8ioGji9GX6Gv1S8VeC/CfimIx+IvDml6pkYDXNsruPo2Nw/A15V4j/ZX+FOqsz2dpqmjM3/AD5XpKg/7soev0j/AF2yzGL/AGvD2l3sn+OjOL6rOPws/P4x46OfxFMII/jFfYms/sZ2rFm0fx5cR+iXenK//jyOv8q4/Uf2OPHybmsfEnhu5A6CQzRE/wDjjD9a8fGZjllTXD2XzkvzKjTmtz5oLAfxCjcP7y171cfsjfFmP7jeHZv9zUGH84xTYP2R/i1I3zjw9CPV9RY/yjNeF9ecXpb7/wDgmvszwnr/ABClCA9X/SvovT/2O/iRKAbrXPDFqM8gTTSHH4Riun0f9jDUGwdW8e20XqtppzP+ruP5V6NLH4S37233yf5Eezl0PlBUTHOTT1CqMhVHua+5NA/ZB+H1nhtV1jX9UcdVEqQIfwVc/wDj1em+Ffgr8LvDTrJpngvSjMvSa6jNzID67pS2D9K9GjxPgMIv3dO78kl+L1/Al4ect2fnz4K+HnjjxpMqeGvDWo6gjHHnrFthX6yNhR+dfRnwv/ZEcvFffELWl2jBOnaax59nmI/MKP8AgVfXMccccaxxoqoowqgYAHsKdXDmHGuPxK5aVoL739/+SRpDCwjvqY/hLwxoHhPR49I8OaVa6ZYx9IoExk/3mPVm9ySa2KKK+QnOU5OUndvudKVgoooqQCiiigAooooAKKKKACiiigAooooAKKKKACiiigAooooAKKKKACiiigAooooA/9k=;" vertex="1" parent="1">
                    <mxGeometry x="714" y="898" width="170" height="450" as="geometry"/>
                </mxCell>
                <mxCell id="20" value="" style="shape=image;verticalLabelPosition=bottom;labelBackgroundColor=#ffffff;verticalAlign=top;aspect=fixed;imageAspect=0;image=data:image/jpeg,/9j/4AAQSkZJRgABAQAAAQABAAD/2wCEAAoHCBUUEhgVFBYYGBgZGhoeGhwWGRoYGRwZHBwaGhgYHBgcIS4lHB4rHxoYJjgmKy8xNTU1GiQ7QDszPy40NTEBDAwMEA8QHxISHjQrJCUxPjQ0MTc0NDU0MTQxNzQ0MTExNDQ0NDQ0NDYxMTQ0NDQ2NTQ0MTQ0NjQ0NDQ0NDQ0NP/AABEIASoAqQMBIgACEQEDEQH/xAAcAAEAAgIDAQAAAAAAAAAAAAAABAYFBwECAwj/xAA+EAACAQIDAwgIBAUFAQEAAAABAgADEQQSIQUxQQYiUWFxgZGxBxMVMlOSodFCUnLBFCNi4fAzgqKywvEW/8QAGgEBAAMBAQEAAAAAAAAAAAAAAAECBAMFBv/EACQRAQEAAgICAgIDAQEAAAAAAAABAhEDIRIxBEEiURNxgZEU/9oADAMBAAIRAxEAPwDbfs6j8Kn8i/aPZ1H4VP5F+0lxAiezqPwqfyL9o9nUfhU/kX7SXECJ7Oo/Cp/Iv2j2dR+FT+RftJcQIns6j8Kn8i/ac+z6PwqfyL9pH2xtelhaRq1mso0AGrM3BVHE6fe01Xtv0l16t0ogUUPFTmqEfqOg7hfrgbb9n0fhU/kX7R7Po/Cp/Iv2nz+20cQxznE4rfv9fVtf5rSwbE5Y42gRer69OKV9W7qg5wPbcdUI3G4fZ9H4VP5F+0ez6PwqfyL9pE2HtdMVSFRAVO5la11PRpoR0Ef2mVhKL7Po/Cp/Iv2j2fR+FT+RftJUQIvs+j8Kn8i/aPZ9H4VP5F+0lRAi+z6PwqfyL9o9n0fhU/kX7SVECL7Po/Cp/Iv2j2fR+FT+RftJUQIvs+j8Kn8i/aPZ9H4VP5F+0lRAREQEREDiR8TilTfvO4DfJEruOJOIe/DLbsyg28SZFuk4zdee0cBSxTK1dBUyXyq1ygvvOTcToNT0SRhcFSQWSmiD+hFXyEJJCSItXc01IsVBHQQCPCQMTyewtT36CX6VXIfFLGZJZzLqsDs/k9/C1RUw7sF3OlQ3BXiA28HoveWxWB3SDIuAx7MELADOmdQvBdDZr7zZl1HXppq1tDNROqtcXnaQEREBERAREQEREBERAREQOJX8SjGu9gd46B+FZYJjMSee3d/1ErVsfaIpYfhPcQf3nslXpBHaPtBMAyN6We6ODuInaeQsRrY9us5UdB7t4+stLtFj1Ex+IwQDZkGW3EEkA6/h4DXhJwe05uCJeVzsSMIbovZJE8qIsonrKpIiICIiAiIgIiICIiAiIgJh8Y9qjd3lMvKJy12i9OuqJpdASe9hp16Tny5zDHyrpxY3LLUZqti0QXZlA6yB5yC/KDDKdain9N28hNa4mqzG7sWPSTfznvhqYZb3nm5/NyncjfPiyTutkHlDhxTVsxIZsosp326J6Jt6gdMxHaplMoURkTqe8z2zsj5lYbyT4kaiTwfNyzy8bqOPJw44z7WCjj6T+66nqvr4GSTKLjsBlV2Q3yt/x6fLxntsLaLoLZidbWN7DXomzD5G7qzTllw9blbCoe6J6zxwrXRT0gHxntNLOREQEREBERAREQEREBERA4muPSixRqTrvZHUHrBB/wDRmx5RPSjhc9PDNwFcIex1P7qJx5pLhdplynePtp6o7klrudd+th9pP2ftV0Nm5y8eDDs/vLxykwyJhQqgKqmwA0EwbYFKy85bG2jDQzx58rDkx/LHremyfH5Jj5Y5dszs+uj01ZdRcnw4HrmX2Lq7Hq/eUfZxfDYjIx5j2F+BubKw6NdDLpgK+Q2G89XATP8Ax+HLPHuXuL48vnhfLqzqpG1cKSpK72Nm7Lg38RK/RDqx/qa31Jmdxu0FQurMFHq1YE9LO2ngJAwro5pKrAlnv4WA+pnocWGdzn61tEyxmF22ThUy00XoVR4AT3nE5nrMBERAREQEREBERAREQEREDiVn0g0c2z6jDfTKOP8AY6k/S8s0x+3cP6zC1k/NTcf8TaVzm8bExQNtVA9ANvU5W7jYzFYMbuyY6rttVoimwYqUGQgC4GoykX4Tts/a9E2BfKf6gQPHdPm8/jZ4yzV1vb0eH5PHnhLubSOVCKaaN+IPbuKknyEtezTeiGNtUDeIBlF241R6iLl5hsKZU5lYtpe40v1dUvuEp5aGXoQL5CdMcPHHGW96tcJfLkyv10j7awa1CQbC4IJtckBVYC/DWdNhbIC4qjYnm6kG3A3uLdkn4sXdurTxCiT9hUgcST+VPP8A+z0vi55eXjvqHJjj4712tcRE9BkIiICIiAiIgIiICIiAiIgJ0dbgjqtO84gaY2jyeptQVyzhg9RDYi3NboI65WcFsnPUamz5GsGW4uGHjcH+8snK+hiM1QU85RK9TRCQBn1GgPU3hK1stKzYimzByQRdmB90b9TwteeXl54zK+X1/wAXlwy6mH3r+2Tw9OtgnDNZqdxmy6r22O5psKm4akSu42sem5FpTeUFd/VhFQtnsM28XvcKB+Y2lswFIpQRDvVUU9osP2mLHLy8c8p3dzr9ftomPjbjN6mv8dcXXKMwtfM5IJNgADSB18ZmeST52qNaw0A/zumIxlfnhbD321Iv16eAmf5JD+Wx6W+89jhxm96+nPkyutLDERNLgREQEREBERAREQEREBERATicziBqvl1Xemanq75zW3WvcFARpxN7+JlV2dtl0ZUxCFVPusVK9+u8X4iXHl9VFOoam+1SnpxKtTYN5StY/a+Gq4dEJJIRtCjAhszEEG1uI4zx+ebvj47lt7n068WWrb5asvr/ABYqa7pmaPuAf1L5yu7KqE0qebfkW/gJZMH7oHSR5zzuHHXJZ+ttmd3jK8lyNUyneGY6H+lpY+TiAUjbcWMq1Nk/in1BYNYjouLeRlv2IoFLTpPkJ9B8a9Vl5WSiImlwIiICIiAiIgIiICIiAiIgIiIGt/SHhlY1C18q+pZrb8pzox7rg9gMpdfYVGkKTs7lHYhtBZecQLsNwNhrbjLn6SqLOxVdSUQ2va4BcEfWa5fEYhE9W5cIBbK63AB1sCR+88rPdysl1q3c/t16x7uO9ydr5h06B2dkzuHNkB7JV+TdZjQTMDcAgE8QCQD4Wlhp1Oag6x52nlccuPJlP02W+WMv7RqmHAxbML3Y3bTS4OmvTa0u+x1tSHaZU6qH11/1dnAy27KFqS36/OfR8Hq9snL6idERO7iREQEREBERAREQEREBERAREQNe+kWt6tg9r2Tdu/Fb95Q024jKyPTazLY2IbXp1taXr0lspenTY29YjqDwBGo+tprygcI4XNmRyBfLewPHXUTyOXjx/kytl9+40+eXhJLPXqs/yYxJdMrHVObfqtdb+XdLRhk90D8w+lpX9k4RKScwls2uYkG+mlrcJmKL6jtB8p5mWU/ltx9VowlnHJfbIu59Yo628gZbNm/6S9/mZUc5zIf1f9RLbs03pKTxBPiTPouD0ycv0mRETQ4kREBERAREQEREBERAREQEREDXPpPVRUoMxABSqgJ3Bmy27NA0oWxdm0alMFr5tQ1m1Bvppu3WmxPShhRUp01JtfNY9BFv875q5dnV6bc2/ah/bQzzOfWWVxmWr07YyyTK47ix7JpNRqerLZlYFkJ4EEXHgZnw2qWG+/7Ss7DpVWfPUzaAque9yTvsD/mssZ0IPQD42nlc3XJ73fv+2rh7x9an1L+mQTFC9MdII6tFX+8uuzT/ACU/TNe13XPkUe5x62CzYezBain6RPc+LnMtyfTPz46kS4iJsZyIiAiIgIiICIiAiIgIiICIkbH4gU6TudyqzeAvA1Hy25UGvimoqLLScqpH4iLhr/8AE+MxiVyW+kxG3cWGFECxIpl3PEvVdqhF+oFBO+z8WGAvvvqevpnm/L4Py8vbZ8bnxuPitNCqCoN+Mlev1t2+RmIoNzBY8Z4HFspfNfRWy9HukD6zyZxeWXTXakptxDXe19Dx3TcezWvRQ9KifMq4n+Y5/Mbdl59NbN/0af6F8hPf+Pwzj3r7YOfO5SJUw/KjajYXCvWVVZlygBjYEswGp793GZiU/wBJtS2CVeNSvRQd738gZpZr6XATmIhJERAREQEREBERAREQEq/pExfq9m1jexYBB/uNpaJrn0x4vLhqKfnqgkdSjN+xkUaertr3Cd6TkbjI7Nc6bp7LKXv25+mXw+0mCgef3nXF453sgGW51P7AcZBpHm365aAaFSmistqhYDMthoQxue+w3Tnj8XC5eUna/wD7MsZ45dxU8Bh2eqVtp6wE3G4AnWb39H+0jXwzkm4WrUC/oLErNLYgrSZksRmHOIJvc7/3mxvRNtTNSqIlNsqlbuzC3G3WTbh1cJ2ksvabyY5602dNU+kvlNmr08LSyEU6iO7EXtUVual+AA1bttwM2qZ8+Ymk+LxdWuQqs73C5smVrqBcEG9lGuoudbjdJtUzymMb42ZjVr0UqqRZ1B0N7H8S9oNx3SZKt6P6bU8GKThcyMwJQ5g2bn3v0863cJaZNTjfLGVzERCxERAREQEREBERATTvpqr3rUE/KrHvJt+83DNXctkU4xmIBIUKCQjFQVymysTluSecyMvNANhcit9Jk21GDpPdNNOuX6tgqTU3zogzaszKiZbKTfNYEc0ggsSECXILXDYfaHJxAC6MU5qZFqFER2NswR6rq/5mGZANLX3SNKZYq6uht1zMK9qakHUMDMVi8O9OoyOpR13ht4uAR3WIN+uSaT83/OqdMLqVlznbIcpcLlbOPxioB228+cJf/RQANmhl3tUfNbpAUD6ASmbYU1aCsl7pU16hk5zdnNvInJjatehiqKI7Ij1kzouitzlBuu7dIy9uvHZG8f4ojj4ymYfkOpfOlYgEk2ZLnU3tcEeU2MZS/wD9KtPE1cOaTHI+VSGHOuiuLgjT3rcd0rrt15Ljr8lk2Ns8UKeUHNclibW1Nhu7pkZ1UWE7SyZJJqOYiISREQEREBERAREQOJqblnsmu9Z8RRYOyO2VLBWHv07hzoykkFkIswFrzbM17tjavqPWsVZkValRmBGjKxslj+I7x2dcrUxgMPULqhUMGsea6c9GDDmHNcXD2HOvd8rG6o0xrbTVSTTzsQ6oxwy4f1LO5JGatWV3qki/PIUHLuWZPGU1rVSMxKValFSu7MtSkHa/5f5dOqnZWYzPYfkxgHcv/D0zbm6e7m0OiqbDQjxkyIqlbSwK4mmwRHbEZ2UZ6aUqhNNSa1INS/l13VcrD3GsDbNqBVqT7uibJ5WcicOtCpWw4ak9NS+UMSjhVuyhSeaSAQLW1G6a1Qyb0z5zVWfZr5qbp0tb5lKf+jMXgB/OoHjnX/ss4p1HA0uASDp3faScDROemx4VF3794k3054XvT6EptcA9IBlcrclUbFNiM7As6sykAi6qq2HQCEHTvMz2D/00/SPKe8hquMs1ScxELEREBERAREQEREBERA4mjOVeMdMTWyNbOSrAgEEXHA6XBAm8ibTQ3K7XEOR+YymX0menTA7aQKHfN65aqVeaAEcoGREtY5FCHLYADQd+U2DtCglHFKmKagXqB6bVMucNbMSyi4Zc9tBqQOuUvcZ2UxMrFLWzW5Qp/Au9StSeu2HQsgen74z3QKo3m+7frbomsMHRzEdA3z0oZXfcLW799rzIABRYadkm5WuWX5OEEmU9Mh/rTzkJW1kxfdHUy+YkqSdt64BwyCxvYAHqO+x7iPGS5XeTf+pXOa4JpadBFNQe+2U+EsUlqIiICIiAiIgIiICIiAiIgYvlGxXB4grvFGpa2++Q7uuaM2hivXKr8Sov+oCzfUTfm0aBejUQb2RgO0g2+s+csYrJUZdEFyGVgbKRodACQbg8JTKJ3qPNjOlVuabdE6iqD29E5Rr3kOb22U4WoL9Vx0gmzDwJk2roSOiRKFMBg3RJFZtR1iW+nK9V3piTB7nePMTHLVG7eeganwnvZiQHOUX90HW/Xbj1RpXem3eQLs6V3b8VU2/Soyj6C3dLbMFySwLUcKodcrEXK8VHAHrtqe2Z2WaZ6cxEQkiIgIiICIiAiIgIiICUblpyFTFk1qBCV/xX9x+jNb3W/qHeOIvMQPmrbGxq2GbLiKTob6FhzG/S45rdxkBqeRubuIG/s6fGfTuIoq6lXVWU7wwDAjrB0M1jym9Gjmo1TBMuVtfVOcuU9CNYgru5ptbp3AVuKtxa6olrXy8bbxPUUr85yNAeaCbDtPGWCjyC2iTY4fL1mpSt9HJ+ku/JXkCtBhVxLLUce6gF6anpJIu57gB0HQyZHK4W1r7Y2w8RiTahSYqd72yIB1udD2C56ps7kvyIpYUipUIq1RuNuYp6VU7z/Ue4CW8CcyXTHCRzERC5ERAREQEREBERAREQEREBERAREQEREBERAREQEREBERAREQERED//2Q==;" vertex="1" parent="1">
                    <mxGeometry x="726" y="1770" width="235" height="414.38" as="geometry"/>
                </mxCell>
                <mxCell id="21" value="&lt;font style=&quot;font-size: 23px&quot;&gt;//* Casino dice sound on click&lt;/font&gt;" style="text;html=1;strokeColor=none;fillColor=none;align=center;verticalAlign=middle;whiteSpace=wrap;rounded=0;" vertex="1" parent="1">
                    <mxGeometry x="573" y="3062" width="362" height="104" as="geometry"/>
                </mxCell>
                <mxCell id="22" value="&lt;font style=&quot;font-size: 24px&quot;&gt;{button on click} &lt;br&gt;&lt;br&gt;Roll dice to determine start&lt;/font&gt;" style="rounded=1;whiteSpace=wrap;html=1;" vertex="1" parent="1">
                    <mxGeometry x="734" y="1487" width="228" height="142" as="geometry"/>
                </mxCell>
                <mxCell id="23" value="&lt;font style=&quot;font-size: 24px&quot;&gt;{button on click} &lt;br&gt;&lt;br&gt;Roll dice to determine start&lt;/font&gt;" style="rounded=1;whiteSpace=wrap;html=1;" vertex="1" parent="1">
                    <mxGeometry x="734" y="2324" width="228" height="142" as="geometry"/>
                </mxCell>
                <mxCell id="24" value="" style="shape=image;verticalLabelPosition=bottom;labelBackgroundColor=#ffffff;verticalAlign=top;aspect=fixed;imageAspect=0;image=data:image/jpeg,/9j/4AAQSkZJRgABAQAAAQABAAD/2wCEAAoHCBYWFRgWFhYYGRgZHRwcHBwZHB4fGh4eHh4cGhocGh4cIS4lHh4rJBocJjgmKy8xNTU1HCQ7QDs0Py40NTEBDAwMEA8QHhISHjQrISs0NDQ0NDQ0NDQ0NDQ0NDQ0NDQ0NDQ0NDQ0NDQ0NDQ0NDQ0NDQ0NDQ0NDQ0NDQ0NDQ0NP/AABEIAMIBAwMBIgACEQEDEQH/xAAcAAACAgMBAQAAAAAAAAAAAAABAgADBAYHBQj/xAA6EAABAwEFBQYGAgEDBQEAAAABAAIRIQMEEjFBUWFxgfAFBpGhscEHEyIy0eFC8XJSYoIUFjNDkiT/xAAaAQEBAQEBAQEAAAAAAAAAAAAAAQIDBAUG/8QAIxEBAQACAgMBAAIDAQAAAAAAAAECEQMhBDFBEmGBIlGRE//aAAwDAQACEQMRAD8A1RppKAIzUjj1yRd6aD1XJ+eJIFNqdjoFINDnvGcc0oFeO1QgbqcvRVTOAOUSo2IP5QoMqdZIE8ERDyRDT17IRwM6goDkfVFB7dQoNVHAaIROeSL8EurrwQ0SjdOe1EtBGaLoWzRB3NIDWiZ1dUNdiK0ipUIjIqAf3sUxOQQGmQlTFpAjghjpB/aXEdVDRy2miFdxSYuvdPJFc5VXQExmmDYPkhixbAeCOKkf0iI1Fxj9yg1xy3IYjqho0daKNPDigTsy8v6QnKc8kNC4gEjSETvnbwUzy1zS4iKoA6uuk8VCfdC0nr0UcCBwyPPVRpWY4e0JXNnbu62K0u8Ujp2/pGpSfKPRUUx70VGu3otd1/ShJFT5/hB2xBxG/Teq8uhxzTNITWkc04j8RsQip1mlVVB5EUqUrHVrCJGdYhFrSaUHui/C2jhsCjQCKBCDJqIRg5DJFKI2DxUEDRDOkCPNIEXRnbf2iAI/KFZBhHDOQogRoUwjPxRIApXrzCDmEVCNI129HfKDYr6IYdqB3cd1VC3fVQTpCUO31nrgiGBM58ig4kUJ4T6IiNM95ql4oCGnOVGnfBog3XOiUQi6WEaZ+u9QgnikLd6AO8c0NHAJ/GzaEpJyIB9tqhaRUcVDBzqgts8gfX8JXjfUIRnw5pMU5+KJIseKZ119lU4lHnp+0XUI0lRqKyK5qOHsmcK1SE6UzRYEN6KKrooo29MqFoG2eoQLdp5IO2AQFp5RLddVDzJ2oWbUHmdCEX6GlddymGMj4hGo2068EpMnXkjSNBmOtqMQKwrbOxc6jGucf9oJd4BWWlwtmitjaDe5jwPMIsmV7kYYBOyuv4SuaBQK129VF0mkeHuhEBOeRy/CYZ0zSOcB16KMdUQhozpmYPio5xyQfBMzX13Jjl49AoFYa618E5Onmls3bOE6KYq0/SFnaGokGUA6vp5pjl7qNdlTxQIXbYKLnc02p2apIEURRszooMjpHgoTQZSpi8EE6oq9isACUgRXx/CLKcRWc69eiQgHPPciAJQgIQRt2+iAbWorpsRbsKgoCctiCQYiEBU4ToUCIzrVFwIKio9vlHNVubJqICfhMdftKJ5osJA/1Dw/SiLgoo1t6G+BGiEyZy03IuNK8oSO661VeWGaFGyevJKQNvXJQiKeRyVVddbu572ss2klzoAGpJW63ax7LuNo2yvlq20vEAuGF7rNk1AcGggU1dpWACvO+G9k035pIqGPLeMR6Er1O2vhi+2vlpbC3aLK2cXPaWkvGKMTW6HKhpG/U+l4fDhlP1e66VYWbGtAY1rW6YAAI3RRG0sw4QRK5L298Q7xd7y+73dlm2yu0MDXtc59oWBogEEYZ03Ca5LqNn2jZxZ43Ns32jQWse5ofJAloBMkiYopp9GOW/Eq5CytrMhoh4cJArIEifPyWlgZGnL3XVPi1d//AMzHxOB4J/xNHLjQvLmuwuMxT2lI8HlcO8v1j/b0H1KGX8sktnaSBlCtJBFQBEVGqrwXc6K2uXqmisenqmYycxTd7KTWlQPJGdlc2DkK9eCEeHWSsDczO/elc3Z6oSlcB17Jhl5KyzsXvc1jGOe4/a1oJJ5Cq2u6fD+8FuO0eyxESQ4yRxig8UdMePLP1GmObvlDyhbR213PtbJnzGObaWeZczQbczI3ytXe5DLDLG6ygDZknJ05pMOzYjYMLjhGZoOKJpbYWL3kNY0ucTGFoJceAW49lfDm3tAHWzm2Ldn3v8AYHjyW19x+z7FjIYBj/m8/c78N3La3lR7+Hxcdbyaa3uNcLCzc+1xvawFznPeQAAJJhkU8Vqd2Z2XfnusrqbSwtSDgxg4HkAmBLjoCYoaFbn3y7zXOwabteXOPzmODmsBJDHSwuMZDONaLwe5/cWxY+zvTLybWyBL7IYMNXNwy4zUgaQKgbITXT03hwvWo0PtC5WljaOsrQQ9prs3EHUEKhwoulfFDs2WMvDR9TDgfva77TydT/kual2WxHzefj/GevgDSmnggCZT4xWlNEjnbOvBHEMR5JhUn1QbQRtUk8EUVFK7CoojLYNKeKkVpJjkiDpSeskHE1oFXH6aKcM/ylw5ajanc6mU7UgcYyr1mqke73Pvgs75YPLqYsJ/5gs9SPBdvC+c3WhBnzFDOmW9dn7B7yNtLBlo45t+rc4UcPFH0/By6uP8Ab0rz2Bdn2ot32Fm61bEPcxpcIyMkZjQ6LlHe7uNfrftC1f8AL+Yy0P0Whc0NYyAACCZGGCMjtFV0G/d+ruygBcd2XitW7a+I9phOCyMZQ2p8k3Hvtj1O9zpuwu5diLGNaXH+TmtAxHiRK4fexUONC7MbDSR44luQ7xW1sSX2ZYNpOfLNax2/GNpH3HMcP7WfrOdlhrqZG1ZbRxWBdNAvWaBQUA81p8jl6oETlIgZbYRbMb0pic8uslaYncRQ7DsRxqsujf8AkL2+7Xd60vlpDfpY0/W8inBo1f0d/iYYz/S6x8N79Zusm2bQA5sniZqeKPRwcczy1fTYOyOxbG7Mw2TACfucavd/k72yWrfFLsW83q7MbdwX4HYnMBALhBAIkgHCax7hbzaCCVxf4iC/f9eSDePlQ35PyceH7RP2ZOxzOsRGisfWkmM1G2fDLsW8XeytRbtLGPLcFk4glsAh7jBIGKlP9s6rVO/PYAu1tiYIsrQkt2Nd/JnDUbuC6r2IbX/prH5//mwMx5ffhGKYpM7F53fO4ttrq9hzH1MOxwqPxwJUrny8Uzx/n44mHEUyCtsXYXNI0cD5hU2ZkxHLKvBM5uccutEfK9Vv/c3tqTZ2hEYvpc3YQcLh4hdGv15ZZse97g1jQXFxyDYmTyXGxbll1daWQGIAuI0LgZtPGHLoPzmX64/Lc4tba2YGIZiQCDvUfX48tzpqPat2unbF4D7reSy3YzC5rmOhzAT9TQYqMRy2iQF0Du32Q263dlgxxcGTU6lzi5xjQSTRah3N7im627ba0t2PDA8MDG4ScUgl5OdCaV0rQLbe0u3rvYiX2jBukT4Ja6xj984N0tWnVpjiKj0XFcROlOvytu7zd9rO3a5rCSIIGytOa09pgjOvv7KR4PN1cpr2aYildn5QbFDvUnxmJUc01zoq8JjUUj95pAYTNip4IuaNvUIEUTtjeosm6yLPqU7yY4pGiBAOuaLxNZHMrbj9GzJg1j870jimY6ireDTXmiz2eZGiybvf3sBYD9DqkDwpvWM4UBCXmdu5GsMrjdxO0L6WtlkT/un2WDY9rEA46nQNaR5krPtbORBE71hPubdE09eHlbn+Si17Ue6jW4fM/hYQu7nGXSSdSvXZYNAyjimc0fhFy8i30S6XcBskTsV7/phWF0CgE9RVVBu3rJV5LlcrurKSIFddu/JBxBynr0ULoHulnd5qMmBpXLJep2B2k+wtmOaTBOvXI8Z0XlkznkdnvvRDiC0iaVB2I3hlcMpXerTtDHdnW9kMbsDnBmpcGkhvjRcg7n99L9aXyzbaWnzG2jw11lhaMIM4nNgAtw55/wATO1e93L7ZexzmGcD/AKgD/F4gPb/i4Q4f8toXuX/t+7XbFbPYxr3ZuDWh7jskCSq+xhnM8ZY21zoWi98+9liwfKa8OedG18YWk95e/wDb25LGO+VZ64fvI3n+K0q0ty5xI12Znicyp7auWnqutsT3ubkXE+cq8g0jnvqsC5tIzWcBGu73R8vl7yev2Vf2tcWO+19WzlORB4r1LfvOy7WYYwAlohomABoJWn2rcTY06K822ubpmSeJqmno4OWY46r2u0u915fIdaYAdGUjiTU+C8C0vJcaSZzLqk+Kss7gSshtyimqdOuXNiqu+I1NV6mQ5dBJYWdDTrcmDuvRR4uTL9UzXbM6TKmLYEbPOuXolc7rdp6o5/TgSEAIJGQUHVaSM0zRzRBjcfJRLTaopo0y2tISGKpsojn+ErjTRacYMEASP2q3Nyz4KxxoNnio5mUVRZQDabFCYoROSa1H463IDxiJmv8ASIkUJpMZBVu2a7lYRG7gZppzV9zuL7V7WWbC950HmTNAN5RrGbuoxSwg7dRX1T2Ni95hjHPj/S0mPDJdR7A+HTGAOvLvmOzwNkMHE5u8huKwv+/uz2W7ru2zc2zY7AbVrQLMOxYaNBnDP8t0xlN7e3j8PLLvK6c+vFk5tHAgjMEQZ3ysczwH4XQviV3ec1ovDBIbR43aO5HPcdy5i2+Sa0jTYo5cnjZcd1O4y7R01zStIiYS4oqNRVFmp5I5a6ENyTB1RMkhI1xFNNiciKzuVSsm5311m7G3ICo62Lw+2L++1fjdM5CcwNg2cl6jdPP9qp1i2TI8R10Ed+LmuHXx4bbFzqlZt1ugnrRZ7WQCNOvNTDWR1Ki5c9yI4DTgmdFeHUpjQRp1PogBzPsjlsunICqBGuqO2Y58VDnPQzRSsZurT+0HtKsbvO73UdTIx+1DfYj7TvP7/CrPGkJ21kZ6oPbqESexbnIKjXSI5eajjQeB49BLFUDOaOut6fHGvW1K4HLWJ5aqCIpmD4oifLOxREKIbrMB/X5QJokAiumSe1qKTHmq4/SBwnKnonik1zlBpgRHDLzQqRBz0QQOHWW5QCtTnsFPFGYgDw3p2EDZTjTjKJboLvZF722bYxPIaOJMBdx7r9hWd1sg1oBcQMToq4+w2DRcPuV4wPY9ubHtdxggx5L6E7Pt2vs2vaZa4Ag7iJCsfR8KY936svV5ZZsc+0cGMaJc5xgADUkrlvY3cW4Xm3db3e+fNsG2mN1i0CjicWEuzDTEfbJAidVuHxC7CtL5cn2Fk4B+JjgHGA7C6cJOk6bwFr/wx7o3i6Ptba8NFmXMbZts2uDqNglxwkjSlSauWq+g3+/XdtoxzXAEEEEH0Xzl3v7HN1vDmj7SfpO0ac9F9J2joBK5J3/uzLYOBzGRWcuu0yx/WOnObC2mAVlhwnKQvIspa4tdmDC9O7gn9qPlcuH5qyRki6IGqLWgVOY6KMSPDkjhsDBOWg25qWgBQaNSa9ZJnNMSB1qh9I6JIkGNlQTuPko8Cc6U64IN2nd/acDEaCZ5nkEa+gW68SkwVjrOi9a6937zaAYbC0plLcI5F0LN/wCy73QljW7i8GPCUbnFnfUrXHs663KNBINdeay+0rjaWDsLxBOUZHmsRuecamnW1RLjlj1fYBvPqUSwxl1UJczHOm3RMLSiJdlYKnhn1xRYaz1vQadRp+qpi7wz4bZQoUDSDO0ctqjRGuntogBw6ChNa/0gdx1HQ2JHb9nrVFxOzrbvSB2yUJDYRtCiOJqigzLRx0yyKAHKUYEZzO/2UcI2c4J5KuH8Ea2TSp3qwnQU0P8ASRrRFJPqiGmMok65+eSq1AKiBzqjaEcvf3Qsmmta+qVz4k1nUH1KGuxa3r8rpnwz7fBBurnVbLrOdW5uaOBM8DuXMrOpkmeatul7dZvD2OgtOIRmCFY7cPJePPf/AFsHxf7TvLL6xhtLSzsBZh1ngLmtc6uIktIlwMDOgjbXpHcS8W7rhYOvWL5haaunE5ocRZudNcRbhNanM1Xjdld8W2lnjcQHN+8HQ7Ru3rVe9PxCtHAssnYG5F/8j/jsV/T7EzxuMsvTeO93fGxuzS0uBfo0Z8TsC4x233kfauJJicmj3XhXm8Oe4uJLiTm4yeI/KFldyTXVZvftnLl1EsnlzsRqSvcsRAWPdLrESOay2GmWaPm8+cyvQwff+lHE6ZKYqbpP9ICDXKKb0cEApUf2dZQcZ4b9iYP3U2ftVueOWgQkbP3H7Jsrd7/mjEWwWtkgRtMclufbHbly7LDWln1vEhlk1uLDlidlAnaa1Wk9wLbDfGSaPa5p9QfJbD8RO5j73btt7F7MTWhjmvJDS0ElpDmgwRJ02I+r40x/G5O229ldsWd5sm21k7Ex2WhBFCCNCFlOcua3rtF3Y92srBjG2ltaOc8xIYKiY1NC1o21NMlsPc/vSL7ZucWYHsIa9syK1BafGhyhLHqlUd/+zA+7m0aPqs/r5ZO8q8lzBrhT9eK7jfLMPY5hyc0g8CIK4S5hY5zDm0lp4gwVI8XmYdzJZGfj6pmD9JWjy2qR+fVHhOytNPwg7LKhOukItdOSrI8ESezNmYKlpZRrNP79URt2qtyE9nLia6e6DjUkUJ9kQchoDVI6JjkUWLGkdBRLiG/wUUNM1hHQTvYIjQmiT8eMb0bNx25aa8/0q4X/AGAaBlPFR9nlJz0qlc8zFE7TioRUVVO52OMiQP0lcZAqOs0BaGftr6Iy0aE7Rs3yhrQBsRDiNiMYa0n1SSCYIoN6d7gAARM7EXsjAamYG5U367h0ZK8kGoEcfTigXtis+CNY5ZS7jzrPs+qzLOzAiG1qnxCN3HqqZxbtn2Vayzyy9gxhAkgEc0Hsz5p5oDNBpI6hK14rFZz3cFGO/asNIjZl+0z4rHQ/KE0qQq3POXJG+7TB2WzqqWczs3IuNJFOqqs57us0WRn9j3ost7J3+l7fChPku2OtJquAknTVdc7H7Vx2TC7MtbPGKqV9Hw71YfvN3fsr4xrXlzXMMte2MTZzzoQdi1ft+yd2XciLs5xfaWgDrV0Fwlp+rKP4ho47Vu4tgdVj35lm9jmWga5jhBDog+KSvdY0r4fd47xa2j7K2djaGYw8xiaZAwkgVmSeS1nt4AXm1AoC8u/+od7lbdee0Llc2uZY4Gl33YTicYy2laLerx8y0e/IONJ3AD2R5fJ1+JPuzF+zgmYaKk6BMdiPnWHD4A6ooDvVeOUYQ0sxkflSVWSgiaWYkpUc6FHA8OtUJEx7lEmHqVFF1HrE0pEb9QnszNSNNOKpDSTB99FYQIgc9PVV5KV7Y/jP791HNPUAoNZBzjZs3cwrLSds6qqrFDUEE0ExyTOEyZyNYCUTlEeHgrMhlB1/W9EqmzjQneDt5p7Y6zA3gwknbWd1PMLIbMTIplkeSLbq7JamQCYMVkV8QqWOrmOHWSsx1rU7NB+UjBWaSEJ1AtAIAptQYZEQD7IudtGfhHska4AmKTzRqTo7yDplyVYaNEbRwyzKoLpyojWM6FxGWGiVzRAQe4ZhDECJKOkiOAA1niq3mmcKOfXU+iR5r1ntRuQ9AM/FZLO3bdjQxjmwKCRJjTVYDigCetiOuGVxu4ybXvDfD/7nAf7Q0e0rAtrxbP8AvtLR3+TnEeBKteEpKOv/ALZVVZ3dZLRGQzSF2zmg0+SOdty9rXOgojL8qppRa5Rmxbj2qB0hV4tMk4ciWJi0T4/wqZVs0PoiWCd2SbFmqmnwRxRKJYZRVKKL+Xttma9cUS8AjPkKIADYeP6QqDMy7QblXi9mc8ZHx19EpAkAHLJBsO1qiymfr4KmtA6JziMz+lYwCfukaaV3ToqHGdKq8GBBbU8vRC+kbZirpkbAep8USHRlFZByhVYpMYYAy/tWOdFKwiWVWGkjOvrvlKQcuuRQY4E5EcMucoWm8o3rsTSZ8vFVOJ3big12kkVVbnHU7NEbmK3StCNvsqC7Pqid51mVXNdPRRrGISIHXNVk8I0ReaqrFVHSQXu0qklB7tiQOR0k6RxQCBKBcq3o2IJSlLkpKNSHlEuVQKMqGlrXJpVYKJKJYclHEkBRBlGdHTNd4KsHNCaomlohQuSFyQFQ0v8AmKKqiihpsbB9J4pHZhRRafMS0/8AIVXZZlFRHSev6O7M8PdM/wDjxQURP9EtPyicuaiiE9IMyqGZcj7qKKtY+lZyHWiR+qiiOk9qzl4pRnzCiijpFb9UrFFEbnpXaZpR7IqKuk9K9iBUUUaVlAqKI3BCiiiIYIqKIGCJUUUZRqY6IqKoVyAUUUBUUUUH/9k=;" vertex="1" parent="1">
                    <mxGeometry x="329" y="3511" width="419" height="313.85" as="geometry"/>
                </mxCell>
                <mxCell id="26" value="&lt;font style=&quot;font-size: 40px&quot;&gt;Happy&lt;/font&gt;" style="rounded=1;whiteSpace=wrap;html=1;" vertex="1" parent="1">
                    <mxGeometry x="200" y="3901" width="272" height="148" as="geometry"/>
                </mxCell>
                <mxCell id="27" value="&lt;font style=&quot;font-size: 30px&quot;&gt;NOT Happy,&lt;br&gt;&lt;/font&gt;&lt;font style=&quot;font-size: 30px&quot;&gt;Re-roll please&lt;/font&gt;" style="rounded=1;whiteSpace=wrap;html=1;" vertex="1" parent="1">
                    <mxGeometry x="618" y="3904" width="272" height="148" as="geometry"/>
                </mxCell>
                <mxCell id="28" value="&lt;font style=&quot;font-size: 40px&quot;&gt;{Player 1 name} Remember your hand:&lt;/font&gt;" style="text;html=1;align=center;verticalAlign=middle;resizable=0;points=[];autosize=1;strokeColor=none;" vertex="1" parent="1">
                    <mxGeometry x="187.5" y="3443" width="704" height="28" as="geometry"/>
                </mxCell>
                <mxCell id="29" value="&lt;span style=&quot;color: rgba(0 , 0 , 0 , 0) ; font-family: monospace ; font-size: 0px&quot;&gt;%3CmxGraphModel%3E%3Croot%3E%3CmxCell%20id%3D%220%22%2F%3E%3CmxCell%20id%3D%221%22%20parent%3D%220%22%2F%3E%3CmxCell%20id%3D%222%22%20value%3D%22%26lt%3Bspan%20style%3D%26quot%3Bcolor%3A%20rgba(0%20%2C%200%20%2C%200%20%2C%200)%20%3B%20font-family%3A%20monospace%20%3B%20font-size%3A%200px%26quot%3B%26gt%3B%253CmxGraphModel%253E%253Croot%253E%253CmxCell%2520id%253D%25220%2522%252F%253E%253CmxCell%2520id%253D%25221%2522%2520parent%253D%25220%2522%252F%253E%253CmxCell%2520id%253D%25222%2522%2520value%253D%2522%2526lt%253Bfont%2520style%253D%2526quot%253Bfont-size%253A%252020px%2526quot%253B%2526gt%253BPage%25203%2526lt%253Bbr%2526gt%253B%2526lt%253B%252Ffont%2526gt%253B%2522%2520style%253D%2522text%253Bhtml%253D1%253Balign%253Dcenter%253BverticalAlign%253Dmiddle%253Bresizable%253D0%253Bpoints%253D%255B%255D%253Bautosize%253D1%253BstrokeColor%253Dnone%253B%2522%2520vertex%253D%25221%2522%2520parent%253D%25221%2522%253E%253CmxGeometry%2520x%253D%252250%2522%2520y%253D%25222580%2522%2520width%253D%252273%2522%2520height%253D%252221%2522%2520as%253D%2522geometry%2522%252F%253E%253C%252FmxCell%253E%253C%252Froot%253E%253C%252FmxGraphModel%253E%26lt%3B%2Fspan%26gt%3B%22%20style%3D%22text%3Bhtml%3D1%3Balign%3Dcenter%3BverticalAlign%3Dmiddle%3Bresizable%3D0%3Bpoints%3D%5B%5D%3Bautosize%3D1%3BstrokeColor%3Dnone%3B%22%20vertex%3D%221%22%20parent%3D%221%22%3E%3CmxGeometry%20x%3D%2263%22%20y%3D%223493%22%20width%3D%2210%22%20height%3D%2222%22%20as%3D%22geometry%22%2F%3E%3C%2FmxCell%3E%3CmxCell%20id%3D%223%22%20value%3D%22%26lt%3Bfont%20style%3D%26quot%3Bfont-size%3A%2020px%26quot%3B%26gt%3BPage%204%26lt%3Bbr%26gt%3B%26lt%3B%2Ffont%26gt%3B%22%20style%3D%22text%3Bhtml%3D1%3Balign%3Dcenter%3BverticalAlign%3Dmiddle%3Bresizable%3D0%3Bpoints%3D%5B%5D%3Bautosize%3D1%3BstrokeColor%3Dnone%3B%22%20vertex%3D%221%22%20parent%3D%221%22%3E%3CmxGeometry%20x%3D%2245%22%20y%3D%223424%22%20width%3D%2273%22%20height%3D%2221%22%20as%3D%22geometry%22%2F%3E%3C%2FmxCell%3E%3CmxCell%20id%3D%224%22%20value%3D%22%22%20style%3D%22shape%3Dimage%3BverticalLabelPosition%3Dbottom%3BlabelBackgroundColor%3D%23ffffff%3BverticalAlign%3Dtop%3Baspect%3Dfixed%3BimageAspect%3D0%3Bimage%3Ddata%3Aimage%2Fjpeg%2C%2F9j%2F4AAQSkZJRgABAQAAAQABAAD%2F2wCEAAoHCBYWFRgWFhYYGRgZHRwcHBwZHB4fGh4eHh4cGhocGh4cIS4lHh4rJBocJjgmKy8xNTU1HCQ7QDs0Py40NTEBDAwMEA8QHhISHjQrISs0NDQ0NDQ0NDQ0NDQ0NDQ0NDQ0NDQ0NDQ0NDQ0NDQ0NDQ0NDQ0NDQ0NDQ0NDQ0NDQ0NP%2FAABEIAMIBAwMBIgACEQEDEQH%2FxAAcAAACAgMBAQAAAAAAAAAAAAABAgADBAYHBQj%2FxAA6EAABAwEFBQYGAgEDBQEAAAABAAIRIQMEEjFBUWFxgfAFBpGhscEHEyIy0eFC8XJSYoIUFjNDkiT%2FxAAaAQEBAQEBAQEAAAAAAAAAAAAAAQIDBAUG%2F8QAIxEBAQACAgMBAAIDAQAAAAAAAAECEQMhBDFBEmGBIlGRE%2F%2FaAAwDAQACEQMRAD8A1RppKAIzUjj1yRd6aD1XJ%2BeJIFNqdjoFINDnvGcc0oFeO1QgbqcvRVTOAOUSo2IP5QoMqdZIE8ERDyRDT17IRwM6goDkfVFB7dQoNVHAaIROeSL8EurrwQ0SjdOe1EtBGaLoWzRB3NIDWiZ1dUNdiK0ipUIjIqAf3sUxOQQGmQlTFpAjghjpB%2FaXEdVDRy2miFdxSYuvdPJFc5VXQExmmDYPkhixbAeCOKkf0iI1Fxj9yg1xy3IYjqho0daKNPDigTsy8v6QnKc8kNC4gEjSETvnbwUzy1zS4iKoA6uuk8VCfdC0nr0UcCBwyPPVRpWY4e0JXNnbu62K0u8Ujp2%2FpGpSfKPRUUx70VGu3otd1%2FShJFT5%2FhB2xBxG%2FTeq8uhxzTNITWkc04j8RsQip1mlVVB5EUqUrHVrCJGdYhFrSaUHui%2FC2jhsCjQCKBCDJqIRg5DJFKI2DxUEDRDOkCPNIEXRnbf2iAI%2FKFZBhHDOQogRoUwjPxRIApXrzCDmEVCNI129HfKDYr6IYdqB3cd1VC3fVQTpCUO31nrgiGBM58ig4kUJ4T6IiNM95ql4oCGnOVGnfBog3XOiUQi6WEaZ%2Bu9QgnikLd6AO8c0NHAJ%2FGzaEpJyIB9tqhaRUcVDBzqgts8gfX8JXjfUIRnw5pMU5%2BKJIseKZ119lU4lHnp%2B0XUI0lRqKyK5qOHsmcK1SE6UzRYEN6KKrooo29MqFoG2eoQLdp5IO2AQFp5RLddVDzJ2oWbUHmdCEX6GlddymGMj4hGo2068EpMnXkjSNBmOtqMQKwrbOxc6jGucf9oJd4BWWlwtmitjaDe5jwPMIsmV7kYYBOyuv4SuaBQK129VF0mkeHuhEBOeRy%2FCYZ0zSOcB16KMdUQhozpmYPio5xyQfBMzX13Jjl49AoFYa618E5Onmls3bOE6KYq0%2FSFnaGokGUA6vp5pjl7qNdlTxQIXbYKLnc02p2apIEURRszooMjpHgoTQZSpi8EE6oq9isACUgRXx%2FCLKcRWc69eiQgHPPciAJQgIQRt2%2BiAbWorpsRbsKgoCctiCQYiEBU4ToUCIzrVFwIKio9vlHNVubJqICfhMdftKJ5osJA%2F1Dw%2FSiLgoo1t6G%2BBGiEyZy03IuNK8oSO661VeWGaFGyevJKQNvXJQiKeRyVVddbu572ss2klzoAGpJW63ax7LuNo2yvlq20vEAuGF7rNk1AcGggU1dpWACvO%2BG9k035pIqGPLeMR6Er1O2vhi%2B2vlpbC3aLK2cXPaWkvGKMTW6HKhpG%2FU%2Bl4fDhlP1e66VYWbGtAY1rW6YAAI3RRG0sw4QRK5L298Q7xd7y%2B73dlm2yu0MDXtc59oWBogEEYZ03Ca5LqNn2jZxZ43Ns32jQWse5ofJAloBMkiYopp9GOW%2FEq5CytrMhoh4cJArIEifPyWlgZGnL3XVPi1d%2F%2FAMzHxOB4J%2FxNHLjQvLmuwuMxT2lI8HlcO8v1j%2Fb0H1KGX8sktnaSBlCtJBFQBEVGqrwXc6K2uXqmisenqmYycxTd7KTWlQPJGdlc2DkK9eCEeHWSsDczO%2Felc3Z6oSlcB17Jhl5KyzsXvc1jGOe4%2Fa1oJJ5Cq2u6fD%2B8FuO0eyxESQ4yRxig8UdMePLP1GmObvlDyhbR213PtbJnzGObaWeZczQbczI3ytXe5DLDLG6ygDZknJ05pMOzYjYMLjhGZoOKJpbYWL3kNY0ucTGFoJceAW49lfDm3tAHWzm2Ldn3v8AYHjyW19x%2Bz7FjIYBj%2Fm8%2Fc78N3La3lR7%2BHxcdbyaa3uNcLCzc%2B1xvawFznPeQAAJJhkU8Vqd2Z2XfnusrqbSwtSDgxg4HkAmBLjoCYoaFbn3y7zXOwabteXOPzmODmsBJDHSwuMZDONaLwe5%2FcWxY%2BzvTLybWyBL7IYMNXNwy4zUgaQKgbITXT03hwvWo0PtC5WljaOsrQQ9prs3EHUEKhwoulfFDs2WMvDR9TDgfva77TydT%2Fkual2WxHzefj%2FGevgDSmnggCZT4xWlNEjnbOvBHEMR5JhUn1QbQRtUk8EUVFK7CoojLYNKeKkVpJjkiDpSeskHE1oFXH6aKcM%2Fylw5ajanc6mU7UgcYyr1mqke73Pvgs75YPLqYsJ%2F5gs9SPBdvC%2Bc3WhBnzFDOmW9dn7B7yNtLBlo45t%2Brc4UcPFH0%2FBy6uP8Ab0rz2Bdn2ot32Fm61bEPcxpcIyMkZjQ6LlHe7uNfrftC1f8AL%2BYy0P0Whc0NYyAACCZGGCMjtFV0G%2Fd%2BruygBcd2XitW7a%2BI9phOCyMZQ2p8k3Hvtj1O9zpuwu5diLGNaXH%2BTmtAxHiRK4fexUONC7MbDSR44luQ7xW1sSX2ZYNpOfLNax2%2FGNpH3HMcP7WfrOdlhrqZG1ZbRxWBdNAvWaBQUA81p8jl6oETlIgZbYRbMb0pic8uslaYncRQ7DsRxqsujf8AkL2%2B7Xd60vlpDfpY0%2FW8inBo1f0d%2FiYYz%2FS6x8N79Zusm2bQA5sniZqeKPRwcczy1fTYOyOxbG7Mw2TACfucavd%2Fk72yWrfFLsW83q7MbdwX4HYnMBALhBAIkgHCax7hbzaCCVxf4iC%2Ff9eSDePlQ35PyceH7RP2ZOxzOsRGisfWkmM1G2fDLsW8XeytRbtLGPLcFk4glsAh7jBIGKlP9s6rVO%2FPYAu1tiYIsrQkt2Nd%2FJnDUbuC6r2IbX%2FprH5%2F%2FmwMx5ffhGKYpM7F53fO4ttrq9hzH1MOxwqPxwJUrny8Uzx%2Fn44mHEUyCtsXYXNI0cD5hU2ZkxHLKvBM5uccutEfK9Vv%2Fc3tqTZ2hEYvpc3YQcLh4hdGv15ZZse97g1jQXFxyDYmTyXGxbll1daWQGIAuI0LgZtPGHLoPzmX64%2FLc4tba2YGIZiQCDvUfX48tzpqPat2unbF4D7reSy3YzC5rmOhzAT9TQYqMRy2iQF0Du32Q263dlgxxcGTU6lzi5xjQSTRah3N7im627ba0t2PDA8MDG4ScUgl5OdCaV0rQLbe0u3rvYiX2jBukT4Ja6xj984N0tWnVpjiKj0XFcROlOvytu7zd9rO3a5rCSIIGytOa09pgjOvv7KR4PN1cpr2aYildn5QbFDvUnxmJUc01zoq8JjUUj95pAYTNip4IuaNvUIEUTtjeosm6yLPqU7yY4pGiBAOuaLxNZHMrbj9GzJg1j870jimY6ireDTXmiz2eZGiybvf3sBYD9DqkDwpvWM4UBCXmdu5GsMrjdxO0L6WtlkT%2Fun2WDY9rEA46nQNaR5krPtbORBE71hPubdE09eHlbn%2BSi17Ue6jW4fM%2FhYQu7nGXSSdSvXZYNAyjimc0fhFy8i30S6XcBskTsV7%2FphWF0CgE9RVVBu3rJV5LlcrurKSIFddu%2FJBxBynr0ULoHulnd5qMmBpXLJep2B2k%2BwtmOaTBOvXI8Z0XlkznkdnvvRDiC0iaVB2I3hlcMpXerTtDHdnW9kMbsDnBmpcGkhvjRcg7n99L9aXyzbaWnzG2jw11lhaMIM4nNgAtw55%2FwATO1e93L7ZexzmGcD%2FAKgD%2FF4gPb%2Fi4Q4f8toXuX%2Ft%2B7XbFbPYxr3ZuDWh7jskCSq%2BxhnM8ZY21zoWi98%2B9liwfKa8OedG18YWk95e%2FwDb25LGO%2BVZ64fvI3n%2BK0q0ty5xI12Znicyp7auWnqutsT3ubkXE%2Bcq8g0jnvqsC5tIzWcBGu73R8vl7yev2Vf2tcWO%2B19WzlORB4r1LfvOy7WYYwAlohomABoJWn2rcTY06K822ubpmSeJqmno4OWY46r2u0u915fIdaYAdGUjiTU%2BC8C0vJcaSZzLqk%2BKss7gSshtyimqdOuXNiqu%2BI1NV6mQ5dBJYWdDTrcmDuvRR4uTL9UzXbM6TKmLYEbPOuXolc7rdp6o5%2FTgSEAIJGQUHVaSM0zRzRBjcfJRLTaopo0y2tISGKpsojn%2BErjTRacYMEASP2q3Nyz4KxxoNnio5mUVRZQDabFCYoROSa1H463IDxiJmv8ASIkUJpMZBVu2a7lYRG7gZppzV9zuL7V7WWbC950HmTNAN5RrGbuoxSwg7dRX1T2Ni95hjHPj%2FS0mPDJdR7A%2BHTGAOvLvmOzwNkMHE5u8huKwv%2B%2Fuz2W7ru2zc2zY7AbVrQLMOxYaNBnDP8t0xlN7e3j8PLLvK6c%2BvFk5tHAgjMEQZ3ysczwH4XQviV3ec1ovDBIbR43aO5HPcdy5i2%2BSa0jTYo5cnjZcd1O4y7R01zStIiYS4oqNRVFmp5I5a6ENyTB1RMkhI1xFNNiciKzuVSsm5311m7G3ICo62Lw%2B2L%2B%2B1fjdM5CcwNg2cl6jdPP9qp1i2TI8R10Ed%2BLmuHXx4bbFzqlZt1ugnrRZ7WQCNOvNTDWR1Ki5c9yI4DTgmdFeHUpjQRp1PogBzPsjlsunICqBGuqO2Y58VDnPQzRSsZurT%2B0HtKsbvO73UdTIx%2B1DfYj7TvP7%2FCrPGkJ21kZ6oPbqESexbnIKjXSI5eajjQeB49BLFUDOaOut6fHGvW1K4HLWJ5aqCIpmD4oifLOxREKIbrMB%2FX5QJokAiumSe1qKTHmq4%2FSBwnKnonik1zlBpgRHDLzQqRBz0QQOHWW5QCtTnsFPFGYgDw3p2EDZTjTjKJboLvZF722bYxPIaOJMBdx7r9hWd1sg1oBcQMToq4%2Bw2DRcPuV4wPY9ubHtdxggx5L6E7Pt2vs2vaZa4Ag7iJCsfR8KY936svV5ZZsc%2B0cGMaJc5xgADUkrlvY3cW4Xm3db3e%2BfNsG2mN1i0CjicWEuzDTEfbJAidVuHxC7CtL5cn2Fk4B%2BJjgHGA7C6cJOk6bwFr%2Fwx7o3i6Ptba8NFmXMbZts2uDqNglxwkjSlSauWq%2Bg3%2B%2FXdtoxzXAEEEEH0Xzl3v7HN1vDmj7SfpO0ac9F9J2joBK5J3%2FuzLYOBzGRWcuu0yx%2FWOnObC2mAVlhwnKQvIspa4tdmDC9O7gn9qPlcuH5qyRki6IGqLWgVOY6KMSPDkjhsDBOWg25qWgBQaNSa9ZJnNMSB1qh9I6JIkGNlQTuPko8Cc6U64IN2nd%2FacDEaCZ5nkEa%2BgW68SkwVjrOi9a6937zaAYbC0plLcI5F0LN%2FwCy73QljW7i8GPCUbnFnfUrXHs663KNBINdeay%2B0rjaWDsLxBOUZHmsRuecamnW1RLjlj1fYBvPqUSwxl1UJczHOm3RMLSiJdlYKnhn1xRYaz1vQadRp%2Bqpi7wz4bZQoUDSDO0ctqjRGuntogBw6ChNa%2F0gdx1HQ2JHb9nrVFxOzrbvSB2yUJDYRtCiOJqigzLRx0yyKAHKUYEZzO%2F2UcI2c4J5KuH8Ea2TSp3qwnQU0P8ASRrRFJPqiGmMok65%2BeSq1AKiBzqjaEcvf3Qsmmta%2BqVz4k1nUH1KGuxa3r8rpnwz7fBBurnVbLrOdW5uaOBM8DuXMrOpkmeatul7dZvD2OgtOIRmCFY7cPJePPf%2FAFsHxf7TvLL6xhtLSzsBZh1ngLmtc6uIktIlwMDOgjbXpHcS8W7rhYOvWL5haaunE5ocRZudNcRbhNanM1Xjdld8W2lnjcQHN%2B8HQ7Ru3rVe9PxCtHAssnYG5F%2F8j%2FjsV%2FT7EzxuMsvTeO93fGxuzS0uBfo0Z8TsC4x233kfauJJicmj3XhXm8Oe4uJLiTm4yeI%2FKFldyTXVZvftnLl1EsnlzsRqSvcsRAWPdLrESOay2GmWaPm8%2BcyvQwff%2BlHE6ZKYqbpP9ICDXKKb0cEApUf2dZQcZ4b9iYP3U2ftVueOWgQkbP3H7Jsrd7%2FmjEWwWtkgRtMclufbHbly7LDWln1vEhlk1uLDlidlAnaa1Wk9wLbDfGSaPa5p9QfJbD8RO5j73btt7F7MTWhjmvJDS0ElpDmgwRJ02I%2Br40x%2FG5O229ldsWd5sm21k7Ex2WhBFCCNCFlOcua3rtF3Y92srBjG2ltaOc8xIYKiY1NC1o21NMlsPc%2FvSL7ZucWYHsIa9syK1BafGhyhLHqlUd%2F%2BzA%2B7m0aPqs%2Fr5ZO8q8lzBrhT9eK7jfLMPY5hyc0g8CIK4S5hY5zDm0lp4gwVI8XmYdzJZGfj6pmD9JWjy2qR%2BfVHhOytNPwg7LKhOukItdOSrI8ESezNmYKlpZRrNP79URt2qtyE9nLia6e6DjUkUJ9kQchoDVI6JjkUWLGkdBRLiG%2FwUUNM1hHQTvYIjQmiT8eMb0bNx25aa8%2F0q4X%2FAGAaBlPFR9nlJz0qlc8zFE7TioRUVVO52OMiQP0lcZAqOs0BaGftr6Iy0aE7Rs3yhrQBsRDiNiMYa0n1SSCYIoN6d7gAARM7EXsjAamYG5U367h0ZK8kGoEcfTigXtis%2BCNY5ZS7jzrPs%2BqzLOzAiG1qnxCN3HqqZxbtn2Vayzyy9gxhAkgEc0Hsz5p5oDNBpI6hK14rFZz3cFGO%2FasNIjZl%2B0z4rHQ%2FKE0qQq3POXJG%2B7TB2WzqqWczs3IuNJFOqqs57us0WRn9j3ost7J3%2Bl7fChPku2OtJquAknTVdc7H7Vx2TC7MtbPGKqV9Hw71YfvN3fsr4xrXlzXMMte2MTZzzoQdi1ft%2Byd2XciLs5xfaWgDrV0Fwlp%2BrKP4ho47Vu4tgdVj35lm9jmWga5jhBDog%2BKSvdY0r4fd47xa2j7K2djaGYw8xiaZAwkgVmSeS1nt4AXm1AoC8u%2F%2Bod7lbdee0Llc2uZY4Gl33YTicYy2laLerx8y0e%2FIONJ3AD2R5fJ1%2BJPuzF%2BzgmYaKk6BMdiPnWHD4A6ooDvVeOUYQ0sxkflSVWSgiaWYkpUc6FHA8OtUJEx7lEmHqVFF1HrE0pEb9QnszNSNNOKpDSTB99FYQIgc9PVV5KV7Y%2FjP791HNPUAoNZBzjZs3cwrLSds6qqrFDUEE0ExyTOEyZyNYCUTlEeHgrMhlB1%2FW9EqmzjQneDt5p7Y6zA3gwknbWd1PMLIbMTIplkeSLbq7JamQCYMVkV8QqWOrmOHWSsx1rU7NB%2BUjBWaSEJ1AtAIAptQYZEQD7IudtGfhHska4AmKTzRqTo7yDplyVYaNEbRwyzKoLpyojWM6FxGWGiVzRAQe4ZhDECJKOkiOAA1niq3mmcKOfXU%2BiR5r1ntRuQ9AM%2FFZLO3bdjQxjmwKCRJjTVYDigCetiOuGVxu4ybXvDfD%2F7nAf7Q0e0rAtrxbP8AvtLR3%2BTnEeBKteEpKOv%2FALZVVZ3dZLRGQzSF2zmg0%2BSOdty9rXOgojL8qppRa5Rmxbj2qB0hV4tMk4ciWJi0T4%2FwqZVs0PoiWCd2SbFmqmnwRxRKJYZRVKKL%2BXttma9cUS8AjPkKIADYeP6QqDMy7QblXi9mc8ZHx19EpAkAHLJBsO1qiymfr4KmtA6JziMz%2BlYwCfukaaV3ToqHGdKq8GBBbU8vRC%2BkbZirpkbAep8USHRlFZByhVYpMYYAy%2FtWOdFKwiWVWGkjOvrvlKQcuuRQY4E5EcMucoWm8o3rsTSZ8vFVOJ3big12kkVVbnHU7NEbmK3StCNvsqC7Pqid51mVXNdPRRrGISIHXNVk8I0ReaqrFVHSQXu0qklB7tiQOR0k6RxQCBKBcq3o2IJSlLkpKNSHlEuVQKMqGlrXJpVYKJKJYclHEkBRBlGdHTNd4KsHNCaomlohQuSFyQFQ0v8AmKKqiihpsbB9J4pHZhRRafMS0%2F8AIVXZZlFRHSev6O7M8PdM%2FwDjxQURP9EtPyicuaiiE9IMyqGZcj7qKKtY%2BlZyHWiR%2BqiiOk9qzl4pRnzCiijpFb9UrFFEbnpXaZpR7IqKuk9K9iBUUUaVlAqKI3BCiiiIYIqKIGCJUUUZRqY6IqKoVyAUUUBUUUUH%2F9k%3D%3B%22%20vertex%3D%221%22%20parent%3D%221%22%3E%3CmxGeometry%20x%3D%22329%22%20y%3D%223511%22%20width%3D%22419%22%20height%3D%22313.85%22%20as%3D%22geometry%22%2F%3E%3C%2FmxCell%3E%3CmxCell%20id%3D%225%22%20value%3D%22%26lt%3Bfont%20style%3D%26quot%3Bfont-size%3A%2040px%26quot%3B%26gt%3BHappy%26lt%3B%2Ffont%26gt%3B%22%20style%3D%22rounded%3D1%3BwhiteSpace%3Dwrap%3Bhtml%3D1%3B%22%20vertex%3D%221%22%20parent%3D%221%22%3E%3CmxGeometry%20x%3D%22200%22%20y%3D%223901%22%20width%3D%22272%22%20height%3D%22148%22%20as%3D%22geometry%22%2F%3E%3C%2FmxCell%3E%3CmxCell%20id%3D%226%22%20value%3D%22%26lt%3Bfont%20style%3D%26quot%3Bfont-size%3A%2030px%26quot%3B%26gt%3BNOT%20Happy%2C%26lt%3Bbr%26gt%3B%26lt%3B%2Ffont%26gt%3B%26lt%3Bfont%20style%3D%26quot%3Bfont-size%3A%2030px%26quot%3B%26gt%3BRe-roll%20please%26lt%3B%2Ffont%26gt%3B%22%20style%3D%22rounded%3D1%3BwhiteSpace%3Dwrap%3Bhtml%3D1%3B%22%20vertex%3D%221%22%20parent%3D%221%22%3E%3CmxGeometry%20x%3D%22618%22%20y%3D%223904%22%20width%3D%22272%22%20height%3D%22148%22%20as%3D%22geometry%22%2F%3E%3C%2FmxCell%3E%3CmxCell%20id%3D%227%22%20value%3D%22%26lt%3Bfont%20style%3D%26quot%3Bfont-size%3A%2040px%26quot%3B%26gt%3B%7BPlayer%201%20name%7D%20Remember%20your%20hand%3A%26lt%3B%2Ffont%26gt%3B%22%20style%3D%22text%3Bhtml%3D1%3Balign%3Dcenter%3BverticalAlign%3Dmiddle%3Bresizable%3D0%3Bpoints%3D%5B%5D%3Bautosize%3D1%3BstrokeColor%3Dnone%3B%22%20vertex%3D%221%22%20parent%3D%221%22%3E%3CmxGeometry%20x%3D%22187.5%22%20y%3D%223443%22%20width%3D%22704%22%20height%3D%2228%22%20as%3D%22geometry%22%2F%3E%3C%2FmxCell%3E%3C%2Froot%3E%3C%2FmxGraphModel%3E&lt;/span&gt;" style="text;html=1;align=center;verticalAlign=middle;resizable=0;points=[];autosize=1;strokeColor=none;" vertex="1" parent="1">
                    <mxGeometry x="262" y="4437" width="10" height="22" as="geometry"/>
                </mxCell>
                <mxCell id="30" value="&lt;span style=&quot;color: rgba(0 , 0 , 0 , 0) ; font-family: monospace ; font-size: 0px&quot;&gt;%3CmxGraphModel%3E%3Croot%3E%3CmxCell%20id%3D%220%22%2F%3E%3CmxCell%20id%3D%221%22%20parent%3D%220%22%2F%3E%3CmxCell%20id%3D%222%22%20value%3D%22%26lt%3Bfont%20style%3D%26quot%3Bfont-size%3A%2020px%26quot%3B%26gt%3BPage%203%26lt%3Bbr%26gt%3B%26lt%3B%2Ffont%26gt%3B%22%20style%3D%22text%3Bhtml%3D1%3Balign%3Dcenter%3BverticalAlign%3Dmiddle%3Bresizable%3D0%3Bpoints%3D%5B%5D%3Bautosize%3D1%3BstrokeColor%3Dnone%3B%22%20vertex%3D%221%22%20parent%3D%221%22%3E%3CmxGeometry%20x%3D%2250%22%20y%3D%222580%22%20width%3D%2273%22%20height%3D%2221%22%20as%3D%22geometry%22%2F%3E%3C%2FmxCell%3E%3C%2Froot%3E%3C%2FmxGraphModel%3E&lt;/span&gt;" style="text;html=1;align=center;verticalAlign=middle;resizable=0;points=[];autosize=1;strokeColor=none;" vertex="1" parent="1">
                    <mxGeometry x="60" y="4345" width="10" height="22" as="geometry"/>
                </mxCell>
                <mxCell id="31" value="&lt;font style=&quot;font-size: 20px&quot;&gt;Page 5&lt;br&gt;&lt;/font&gt;" style="text;html=1;align=center;verticalAlign=middle;resizable=0;points=[];autosize=1;strokeColor=none;" vertex="1" parent="1">
                    <mxGeometry x="42" y="4276" width="73" height="21" as="geometry"/>
                </mxCell>
                <mxCell id="32" value="" style="shape=image;verticalLabelPosition=bottom;labelBackgroundColor=#ffffff;verticalAlign=top;aspect=fixed;imageAspect=0;image=data:image/jpeg,/9j/4AAQSkZJRgABAQAAAQABAAD/2wCEAAoHCBYWFRgWFhYYGRgZHRwcHBwZHB4fGh4eHh4cGhocGh4cIS4lHh4rJBocJjgmKy8xNTU1HCQ7QDs0Py40NTEBDAwMEA8QHhISHjQrISs0NDQ0NDQ0NDQ0NDQ0NDQ0NDQ0NDQ0NDQ0NDQ0NDQ0NDQ0NDQ0NDQ0NDQ0NDQ0NDQ0NP/AABEIAMIBAwMBIgACEQEDEQH/xAAcAAACAgMBAQAAAAAAAAAAAAABAgADBAYHBQj/xAA6EAABAwEFBQYGAgEDBQEAAAABAAIRIQMEEjFBUWFxgfAFBpGhscEHEyIy0eFC8XJSYoIUFjNDkiT/xAAaAQEBAQEBAQEAAAAAAAAAAAAAAQIDBAUG/8QAIxEBAQACAgMBAAIDAQAAAAAAAAECEQMhBDFBEmGBIlGRE//aAAwDAQACEQMRAD8A1RppKAIzUjj1yRd6aD1XJ+eJIFNqdjoFINDnvGcc0oFeO1QgbqcvRVTOAOUSo2IP5QoMqdZIE8ERDyRDT17IRwM6goDkfVFB7dQoNVHAaIROeSL8EurrwQ0SjdOe1EtBGaLoWzRB3NIDWiZ1dUNdiK0ipUIjIqAf3sUxOQQGmQlTFpAjghjpB/aXEdVDRy2miFdxSYuvdPJFc5VXQExmmDYPkhixbAeCOKkf0iI1Fxj9yg1xy3IYjqho0daKNPDigTsy8v6QnKc8kNC4gEjSETvnbwUzy1zS4iKoA6uuk8VCfdC0nr0UcCBwyPPVRpWY4e0JXNnbu62K0u8Ujp2/pGpSfKPRUUx70VGu3otd1/ShJFT5/hB2xBxG/Teq8uhxzTNITWkc04j8RsQip1mlVVB5EUqUrHVrCJGdYhFrSaUHui/C2jhsCjQCKBCDJqIRg5DJFKI2DxUEDRDOkCPNIEXRnbf2iAI/KFZBhHDOQogRoUwjPxRIApXrzCDmEVCNI129HfKDYr6IYdqB3cd1VC3fVQTpCUO31nrgiGBM58ig4kUJ4T6IiNM95ql4oCGnOVGnfBog3XOiUQi6WEaZ+u9QgnikLd6AO8c0NHAJ/GzaEpJyIB9tqhaRUcVDBzqgts8gfX8JXjfUIRnw5pMU5+KJIseKZ119lU4lHnp+0XUI0lRqKyK5qOHsmcK1SE6UzRYEN6KKrooo29MqFoG2eoQLdp5IO2AQFp5RLddVDzJ2oWbUHmdCEX6GlddymGMj4hGo2068EpMnXkjSNBmOtqMQKwrbOxc6jGucf9oJd4BWWlwtmitjaDe5jwPMIsmV7kYYBOyuv4SuaBQK129VF0mkeHuhEBOeRy/CYZ0zSOcB16KMdUQhozpmYPio5xyQfBMzX13Jjl49AoFYa618E5Onmls3bOE6KYq0/SFnaGokGUA6vp5pjl7qNdlTxQIXbYKLnc02p2apIEURRszooMjpHgoTQZSpi8EE6oq9isACUgRXx/CLKcRWc69eiQgHPPciAJQgIQRt2+iAbWorpsRbsKgoCctiCQYiEBU4ToUCIzrVFwIKio9vlHNVubJqICfhMdftKJ5osJA/1Dw/SiLgoo1t6G+BGiEyZy03IuNK8oSO661VeWGaFGyevJKQNvXJQiKeRyVVddbu572ss2klzoAGpJW63ax7LuNo2yvlq20vEAuGF7rNk1AcGggU1dpWACvO+G9k035pIqGPLeMR6Er1O2vhi+2vlpbC3aLK2cXPaWkvGKMTW6HKhpG/U+l4fDhlP1e66VYWbGtAY1rW6YAAI3RRG0sw4QRK5L298Q7xd7y+73dlm2yu0MDXtc59oWBogEEYZ03Ca5LqNn2jZxZ43Ns32jQWse5ofJAloBMkiYopp9GOW/Eq5CytrMhoh4cJArIEifPyWlgZGnL3XVPi1d//AMzHxOB4J/xNHLjQvLmuwuMxT2lI8HlcO8v1j/b0H1KGX8sktnaSBlCtJBFQBEVGqrwXc6K2uXqmisenqmYycxTd7KTWlQPJGdlc2DkK9eCEeHWSsDczO/elc3Z6oSlcB17Jhl5KyzsXvc1jGOe4/a1oJJ5Cq2u6fD+8FuO0eyxESQ4yRxig8UdMePLP1GmObvlDyhbR213PtbJnzGObaWeZczQbczI3ytXe5DLDLG6ygDZknJ05pMOzYjYMLjhGZoOKJpbYWL3kNY0ucTGFoJceAW49lfDm3tAHWzm2Ldn3v8AYHjyW19x+z7FjIYBj/m8/c78N3La3lR7+Hxcdbyaa3uNcLCzc+1xvawFznPeQAAJJhkU8Vqd2Z2XfnusrqbSwtSDgxg4HkAmBLjoCYoaFbn3y7zXOwabteXOPzmODmsBJDHSwuMZDONaLwe5/cWxY+zvTLybWyBL7IYMNXNwy4zUgaQKgbITXT03hwvWo0PtC5WljaOsrQQ9prs3EHUEKhwoulfFDs2WMvDR9TDgfva77TydT/kual2WxHzefj/GevgDSmnggCZT4xWlNEjnbOvBHEMR5JhUn1QbQRtUk8EUVFK7CoojLYNKeKkVpJjkiDpSeskHE1oFXH6aKcM/ylw5ajanc6mU7UgcYyr1mqke73Pvgs75YPLqYsJ/5gs9SPBdvC+c3WhBnzFDOmW9dn7B7yNtLBlo45t+rc4UcPFH0/By6uP8Ab0rz2Bdn2ot32Fm61bEPcxpcIyMkZjQ6LlHe7uNfrftC1f8AL+Yy0P0Whc0NYyAACCZGGCMjtFV0G/d+ruygBcd2XitW7a+I9phOCyMZQ2p8k3Hvtj1O9zpuwu5diLGNaXH+TmtAxHiRK4fexUONC7MbDSR44luQ7xW1sSX2ZYNpOfLNax2/GNpH3HMcP7WfrOdlhrqZG1ZbRxWBdNAvWaBQUA81p8jl6oETlIgZbYRbMb0pic8uslaYncRQ7DsRxqsujf8AkL2+7Xd60vlpDfpY0/W8inBo1f0d/iYYz/S6x8N79Zusm2bQA5sniZqeKPRwcczy1fTYOyOxbG7Mw2TACfucavd/k72yWrfFLsW83q7MbdwX4HYnMBALhBAIkgHCax7hbzaCCVxf4iC/f9eSDePlQ35PyceH7RP2ZOxzOsRGisfWkmM1G2fDLsW8XeytRbtLGPLcFk4glsAh7jBIGKlP9s6rVO/PYAu1tiYIsrQkt2Nd/JnDUbuC6r2IbX/prH5//mwMx5ffhGKYpM7F53fO4ttrq9hzH1MOxwqPxwJUrny8Uzx/n44mHEUyCtsXYXNI0cD5hU2ZkxHLKvBM5uccutEfK9Vv/c3tqTZ2hEYvpc3YQcLh4hdGv15ZZse97g1jQXFxyDYmTyXGxbll1daWQGIAuI0LgZtPGHLoPzmX64/Lc4tba2YGIZiQCDvUfX48tzpqPat2unbF4D7reSy3YzC5rmOhzAT9TQYqMRy2iQF0Du32Q263dlgxxcGTU6lzi5xjQSTRah3N7im627ba0t2PDA8MDG4ScUgl5OdCaV0rQLbe0u3rvYiX2jBukT4Ja6xj984N0tWnVpjiKj0XFcROlOvytu7zd9rO3a5rCSIIGytOa09pgjOvv7KR4PN1cpr2aYildn5QbFDvUnxmJUc01zoq8JjUUj95pAYTNip4IuaNvUIEUTtjeosm6yLPqU7yY4pGiBAOuaLxNZHMrbj9GzJg1j870jimY6ireDTXmiz2eZGiybvf3sBYD9DqkDwpvWM4UBCXmdu5GsMrjdxO0L6WtlkT/un2WDY9rEA46nQNaR5krPtbORBE71hPubdE09eHlbn+Si17Ue6jW4fM/hYQu7nGXSSdSvXZYNAyjimc0fhFy8i30S6XcBskTsV7/phWF0CgE9RVVBu3rJV5LlcrurKSIFddu/JBxBynr0ULoHulnd5qMmBpXLJep2B2k+wtmOaTBOvXI8Z0XlkznkdnvvRDiC0iaVB2I3hlcMpXerTtDHdnW9kMbsDnBmpcGkhvjRcg7n99L9aXyzbaWnzG2jw11lhaMIM4nNgAtw55/wATO1e93L7ZexzmGcD/AKgD/F4gPb/i4Q4f8toXuX/t+7XbFbPYxr3ZuDWh7jskCSq+xhnM8ZY21zoWi98+9liwfKa8OedG18YWk95e/wDb25LGO+VZ64fvI3n+K0q0ty5xI12Znicyp7auWnqutsT3ubkXE+cq8g0jnvqsC5tIzWcBGu73R8vl7yev2Vf2tcWO+19WzlORB4r1LfvOy7WYYwAlohomABoJWn2rcTY06K822ubpmSeJqmno4OWY46r2u0u915fIdaYAdGUjiTU+C8C0vJcaSZzLqk+Kss7gSshtyimqdOuXNiqu+I1NV6mQ5dBJYWdDTrcmDuvRR4uTL9UzXbM6TKmLYEbPOuXolc7rdp6o5/TgSEAIJGQUHVaSM0zRzRBjcfJRLTaopo0y2tISGKpsojn+ErjTRacYMEASP2q3Nyz4KxxoNnio5mUVRZQDabFCYoROSa1H463IDxiJmv8ASIkUJpMZBVu2a7lYRG7gZppzV9zuL7V7WWbC950HmTNAN5RrGbuoxSwg7dRX1T2Ni95hjHPj/S0mPDJdR7A+HTGAOvLvmOzwNkMHE5u8huKwv+/uz2W7ru2zc2zY7AbVrQLMOxYaNBnDP8t0xlN7e3j8PLLvK6c+vFk5tHAgjMEQZ3ysczwH4XQviV3ec1ovDBIbR43aO5HPcdy5i2+Sa0jTYo5cnjZcd1O4y7R01zStIiYS4oqNRVFmp5I5a6ENyTB1RMkhI1xFNNiciKzuVSsm5311m7G3ICo62Lw+2L++1fjdM5CcwNg2cl6jdPP9qp1i2TI8R10Ed+LmuHXx4bbFzqlZt1ugnrRZ7WQCNOvNTDWR1Ki5c9yI4DTgmdFeHUpjQRp1PogBzPsjlsunICqBGuqO2Y58VDnPQzRSsZurT+0HtKsbvO73UdTIx+1DfYj7TvP7/CrPGkJ21kZ6oPbqESexbnIKjXSI5eajjQeB49BLFUDOaOut6fHGvW1K4HLWJ5aqCIpmD4oifLOxREKIbrMB/X5QJokAiumSe1qKTHmq4/SBwnKnonik1zlBpgRHDLzQqRBz0QQOHWW5QCtTnsFPFGYgDw3p2EDZTjTjKJboLvZF722bYxPIaOJMBdx7r9hWd1sg1oBcQMToq4+w2DRcPuV4wPY9ubHtdxggx5L6E7Pt2vs2vaZa4Ag7iJCsfR8KY936svV5ZZsc+0cGMaJc5xgADUkrlvY3cW4Xm3db3e+fNsG2mN1i0CjicWEuzDTEfbJAidVuHxC7CtL5cn2Fk4B+JjgHGA7C6cJOk6bwFr/wx7o3i6Ptba8NFmXMbZts2uDqNglxwkjSlSauWq+g3+/XdtoxzXAEEEEH0Xzl3v7HN1vDmj7SfpO0ac9F9J2joBK5J3/uzLYOBzGRWcuu0yx/WOnObC2mAVlhwnKQvIspa4tdmDC9O7gn9qPlcuH5qyRki6IGqLWgVOY6KMSPDkjhsDBOWg25qWgBQaNSa9ZJnNMSB1qh9I6JIkGNlQTuPko8Cc6U64IN2nd/acDEaCZ5nkEa+gW68SkwVjrOi9a6937zaAYbC0plLcI5F0LN/wCy73QljW7i8GPCUbnFnfUrXHs663KNBINdeay+0rjaWDsLxBOUZHmsRuecamnW1RLjlj1fYBvPqUSwxl1UJczHOm3RMLSiJdlYKnhn1xRYaz1vQadRp+qpi7wz4bZQoUDSDO0ctqjRGuntogBw6ChNa/0gdx1HQ2JHb9nrVFxOzrbvSB2yUJDYRtCiOJqigzLRx0yyKAHKUYEZzO/2UcI2c4J5KuH8Ea2TSp3qwnQU0P8ASRrRFJPqiGmMok65+eSq1AKiBzqjaEcvf3Qsmmta+qVz4k1nUH1KGuxa3r8rpnwz7fBBurnVbLrOdW5uaOBM8DuXMrOpkmeatul7dZvD2OgtOIRmCFY7cPJePPf/AFsHxf7TvLL6xhtLSzsBZh1ngLmtc6uIktIlwMDOgjbXpHcS8W7rhYOvWL5haaunE5ocRZudNcRbhNanM1Xjdld8W2lnjcQHN+8HQ7Ru3rVe9PxCtHAssnYG5F/8j/jsV/T7EzxuMsvTeO93fGxuzS0uBfo0Z8TsC4x233kfauJJicmj3XhXm8Oe4uJLiTm4yeI/KFldyTXVZvftnLl1EsnlzsRqSvcsRAWPdLrESOay2GmWaPm8+cyvQwff+lHE6ZKYqbpP9ICDXKKb0cEApUf2dZQcZ4b9iYP3U2ftVueOWgQkbP3H7Jsrd7/mjEWwWtkgRtMclufbHbly7LDWln1vEhlk1uLDlidlAnaa1Wk9wLbDfGSaPa5p9QfJbD8RO5j73btt7F7MTWhjmvJDS0ElpDmgwRJ02I+r40x/G5O229ldsWd5sm21k7Ex2WhBFCCNCFlOcua3rtF3Y92srBjG2ltaOc8xIYKiY1NC1o21NMlsPc/vSL7ZucWYHsIa9syK1BafGhyhLHqlUd/+zA+7m0aPqs/r5ZO8q8lzBrhT9eK7jfLMPY5hyc0g8CIK4S5hY5zDm0lp4gwVI8XmYdzJZGfj6pmD9JWjy2qR+fVHhOytNPwg7LKhOukItdOSrI8ESezNmYKlpZRrNP79URt2qtyE9nLia6e6DjUkUJ9kQchoDVI6JjkUWLGkdBRLiG/wUUNM1hHQTvYIjQmiT8eMb0bNx25aa8/0q4X/AGAaBlPFR9nlJz0qlc8zFE7TioRUVVO52OMiQP0lcZAqOs0BaGftr6Iy0aE7Rs3yhrQBsRDiNiMYa0n1SSCYIoN6d7gAARM7EXsjAamYG5U367h0ZK8kGoEcfTigXtis+CNY5ZS7jzrPs+qzLOzAiG1qnxCN3HqqZxbtn2Vayzyy9gxhAkgEc0Hsz5p5oDNBpI6hK14rFZz3cFGO/asNIjZl+0z4rHQ/KE0qQq3POXJG+7TB2WzqqWczs3IuNJFOqqs57us0WRn9j3ost7J3+l7fChPku2OtJquAknTVdc7H7Vx2TC7MtbPGKqV9Hw71YfvN3fsr4xrXlzXMMte2MTZzzoQdi1ft+yd2XciLs5xfaWgDrV0Fwlp+rKP4ho47Vu4tgdVj35lm9jmWga5jhBDog+KSvdY0r4fd47xa2j7K2djaGYw8xiaZAwkgVmSeS1nt4AXm1AoC8u/+od7lbdee0Llc2uZY4Gl33YTicYy2laLerx8y0e/IONJ3AD2R5fJ1+JPuzF+zgmYaKk6BMdiPnWHD4A6ooDvVeOUYQ0sxkflSVWSgiaWYkpUc6FHA8OtUJEx7lEmHqVFF1HrE0pEb9QnszNSNNOKpDSTB99FYQIgc9PVV5KV7Y/jP791HNPUAoNZBzjZs3cwrLSds6qqrFDUEE0ExyTOEyZyNYCUTlEeHgrMhlB1/W9EqmzjQneDt5p7Y6zA3gwknbWd1PMLIbMTIplkeSLbq7JamQCYMVkV8QqWOrmOHWSsx1rU7NB+UjBWaSEJ1AtAIAptQYZEQD7IudtGfhHska4AmKTzRqTo7yDplyVYaNEbRwyzKoLpyojWM6FxGWGiVzRAQe4ZhDECJKOkiOAA1niq3mmcKOfXU+iR5r1ntRuQ9AM/FZLO3bdjQxjmwKCRJjTVYDigCetiOuGVxu4ybXvDfD/7nAf7Q0e0rAtrxbP8AvtLR3+TnEeBKteEpKOv/ALZVVZ3dZLRGQzSF2zmg0+SOdty9rXOgojL8qppRa5Rmxbj2qB0hV4tMk4ciWJi0T4/wqZVs0PoiWCd2SbFmqmnwRxRKJYZRVKKL+Xttma9cUS8AjPkKIADYeP6QqDMy7QblXi9mc8ZHx19EpAkAHLJBsO1qiymfr4KmtA6JziMz+lYwCfukaaV3ToqHGdKq8GBBbU8vRC+kbZirpkbAep8USHRlFZByhVYpMYYAy/tWOdFKwiWVWGkjOvrvlKQcuuRQY4E5EcMucoWm8o3rsTSZ8vFVOJ3big12kkVVbnHU7NEbmK3StCNvsqC7Pqid51mVXNdPRRrGISIHXNVk8I0ReaqrFVHSQXu0qklB7tiQOR0k6RxQCBKBcq3o2IJSlLkpKNSHlEuVQKMqGlrXJpVYKJKJYclHEkBRBlGdHTNd4KsHNCaomlohQuSFyQFQ0v8AmKKqiihpsbB9J4pHZhRRafMS0/8AIVXZZlFRHSev6O7M8PdM/wDjxQURP9EtPyicuaiiE9IMyqGZcj7qKKtY+lZyHWiR+qiiOk9qzl4pRnzCiijpFb9UrFFEbnpXaZpR7IqKuk9K9iBUUUaVlAqKI3BCiiiIYIqKIGCJUUUZRqY6IqKoVyAUUUBUUUUH/9k=;" vertex="1" parent="1">
                    <mxGeometry x="326" y="4363" width="419" height="313.85" as="geometry"/>
                </mxCell>
                <mxCell id="33" value="&lt;font style=&quot;font-size: 40px&quot;&gt;Happy&lt;/font&gt;" style="rounded=1;whiteSpace=wrap;html=1;" vertex="1" parent="1">
                    <mxGeometry x="197" y="4753" width="272" height="148" as="geometry"/>
                </mxCell>
                <mxCell id="34" value="&lt;font style=&quot;font-size: 30px&quot;&gt;NOT Happy,&lt;br&gt;&lt;/font&gt;&lt;font style=&quot;font-size: 30px&quot;&gt;Re-roll please&lt;/font&gt;" style="rounded=1;whiteSpace=wrap;html=1;" vertex="1" parent="1">
                    <mxGeometry x="615" y="4756" width="272" height="148" as="geometry"/>
                </mxCell>
                <mxCell id="35" value="&lt;font style=&quot;font-size: 40px&quot;&gt;{Player 2 name} Remember your hand:&lt;/font&gt;" style="text;html=1;align=center;verticalAlign=middle;resizable=0;points=[];autosize=1;strokeColor=none;" vertex="1" parent="1">
                    <mxGeometry x="184.5" y="4295" width="704" height="28" as="geometry"/>
                </mxCell>
            </root>
        </mxGraphModel>
    </diagram>
</mxfile>